<svg width="169" height="169" viewBox="0 0 169 169" fill="none" xmlns="http://www.w3.org/2000/svg">
<path d="M112.174 80.6764L53.309 24.5895C52.3268 23.6532 51.0219 23.1309 49.6649 23.1309C48.3079 23.1309 47.003 23.6532 46.0208 24.5895L45.9575 24.6529C45.4797 25.1068 45.0992 25.6531 44.8392 26.2587C44.5792 26.8643 44.4452 27.5164 44.4452 28.1755C44.4452 28.8345 44.5792 29.4866 44.8392 30.0922C45.0992 30.6978 45.4797 31.2441 45.9575 31.6981L101.389 84.5106L45.9575 137.302C45.4797 137.756 45.0992 138.302 44.8392 138.908C44.5792 139.513 44.4452 140.165 44.4452 140.825C44.4452 141.484 44.5792 142.136 44.8392 142.741C45.0992 143.347 45.4797 143.893 45.9575 144.347L46.0208 144.41C47.003 145.347 48.3079 145.869 49.6649 145.869C51.0219 145.869 52.3268 145.347 53.309 144.41L112.174 88.3236C112.691 87.8304 113.104 87.2372 113.385 86.5799C113.667 85.9226 113.812 85.215 113.812 84.5C113.812 83.7849 113.667 83.0773 113.385 82.4201C113.104 81.7628 112.691 81.1696 112.174 80.6764Z" fill="white"/>
</svg>
