<svg enable-background="new 0 0 40 60" viewBox="0 0 40 60" xmlns="http://www.w3.org/2000/svg"><g fill="#fff"><path d="m20 44.9c-.6 0-1.1-.5-1.1-1.1v-13c0-.6.5-1.1 1.1-1.1s1.1.5 1.1 1.1v13c0 .6-.5 1.1-1.1 1.1z"/><path d="m27.9 37c-.2 0-.5-.1-.7-.2l-7.2-5.5-7.3 5.4c-.5.4-1.2.3-1.5-.2-.4-.5-.3-1.2.2-1.5l7.9-5.9c.4-.3.9-.3 1.3 0l7.9 5.9c.5.4.6 1 .2 1.5-.1.3-.5.5-.8.5z"/><path d="m10.9 9.5h2.3c1.3 0 1.8 1 1.8 1.9 0 1.3-.8 1.9-2 1.9h-.7v2.6h-1.3v-6.4zm1.3 2.9h.6c.5 0 .9-.3.9-1 0-.6-.3-1-.9-1h-.5v2z"/><path d="m16.9 9.5h1.6l1.7 6.4h-1.4l-.3-1.4h-1.7l-.3 1.4h-1.4zm.1 4h1.3l-.6-2.9z"/><path d="m23.5 11.4c0-.5-.2-1.1-.7-1.1-.6 0-.9.6-.9 2.3 0 1.5.1 2.5.9 2.5.3 0 .8-.3.8-1v-.7h-.9v-1h2.1v3.5h-1v-.6c-.3.5-.7.7-1.4.7-1.6 0-1.9-1.2-1.9-3.4s.5-3.3 2.2-3.3c1.4 0 2 .7 2 2h-1.2z"/><path d="m29.2 9.5v1.1h-2.3v1.5h2.2v1.1h-2.2v1.7h2.4v1.1h-3.7v-6.5z"/><path d="m17.2 19.3v1.1h-1.4v5.4h-1.3v-5.4h-1.4v-1.1z"/><path d="m19.8 19.1c1.9 0 2.2 1.4 2.2 3.3s-.2 3.3-2.2 3.3c-1.9 0-2.2-1.4-2.2-3.3s.3-3.3 2.2-3.3zm0 5.8c.8 0 .9-.7.9-2.4s-.1-2.4-.9-2.4-.9.7-.9 2.4.2 2.4.9 2.4z"/><path d="m22.8 19.3h2.2c1.3 0 1.8 1 1.8 1.9 0 1.3-.8 1.9-2 1.9h-.7v2.6h-1.3zm1.3 2.9h.6c.5 0 .9-.3.9-1 0-.6-.3-1-.9-1h-.5v2z"/></g><path d="m69.3 37v17.8" style="fill:none;stroke:#fff;stroke-width:3;stroke-linecap:round;stroke-linejoin:round;stroke-miterlimit:10"/><path d="m58.4 43.9 10.9-8.1 10.8 8.1" style="fill:none;stroke:#fff;stroke-width:3;stroke-linecap:round;stroke-linejoin:round;stroke-miterlimit:10"/><text transform="translate(59.7641 19.937)"><tspan fill="#fff" font-family="HelveticaNeueLTStd-BdCn" font-size="9" x="0" y="0">PAGE</tspan><tspan fill="#fff" font-family="HelveticaNeueLTStd-BdCn" font-size="9" x="2.5" y="9.8">TOP</tspan></text></svg>