<svg width="16" height="16" viewBox="0 0 16 16" fill="none" xmlns="http://www.w3.org/2000/svg">
<g clip-path="url(#clip0_16_14)">
<path d="M12.9085 6.5755C12.965 6.57356 13.0213 6.583 13.074 6.60327C13.1268 6.62354 13.1749 6.65422 13.2155 6.69348C13.2562 6.73274 13.2885 6.77978 13.3106 6.8318C13.3326 6.88382 13.344 6.93975 13.344 6.99625C13.344 7.05276 13.3326 7.10869 13.3106 7.16071C13.2885 7.21273 13.2562 7.25977 13.2155 7.29903C13.1749 7.33829 13.1268 7.36897 13.074 7.38924C13.0213 7.40951 12.965 7.41895 12.9085 7.417H11.739V8.167H12.9085C12.9653 8.16423 13.0221 8.17302 13.0754 8.19285C13.1287 8.21268 13.1774 8.24314 13.2186 8.28236C13.2598 8.32159 13.2926 8.36877 13.315 8.42106C13.3374 8.47334 13.349 8.52962 13.349 8.5865C13.349 8.64339 13.3374 8.69967 13.315 8.75195C13.2926 8.80424 13.2598 8.85142 13.2186 8.89065C13.1774 8.92987 13.1287 8.96033 13.0754 8.98016C13.0221 8.99999 12.9653 9.00878 12.9085 9.006H11.32C11.209 9.00561 11.1026 8.96125 11.0242 8.88264C10.9457 8.80402 10.9016 8.69755 10.9015 8.5865V5.4065C10.9015 5.175 11.089 4.985 11.32 4.985H12.9115C13.0195 4.99058 13.1212 5.03748 13.1955 5.11599C13.2698 5.19449 13.3111 5.29858 13.3108 5.4067C13.3105 5.51481 13.2686 5.61865 13.1938 5.69671C13.119 5.77477 13.017 5.82107 12.909 5.826H11.7395V6.576L12.9085 6.5755ZM10.3415 8.58601C10.3406 8.69737 10.2957 8.80386 10.2167 8.88232C10.1377 8.96079 10.0309 9.00488 9.9195 9.005C9.85356 9.00565 9.78838 8.99094 9.72911 8.96204C9.66984 8.93314 9.6181 8.89085 9.578 8.8385L7.9505 6.625V8.5855C7.9505 8.69676 7.9063 8.80346 7.82763 8.88214C7.74896 8.96081 7.64226 9.005 7.531 9.005C7.41974 9.005 7.31304 8.96081 7.23437 8.88214C7.1557 8.80346 7.1115 8.69676 7.1115 8.5855V5.4055C7.1115 5.226 7.229 5.065 7.398 5.0075C7.43985 4.9932 7.48378 4.98594 7.528 4.986C7.658 4.986 7.778 5.0565 7.8585 5.1555L9.499 7.374V5.4055C9.499 5.174 9.6865 4.984 9.9185 4.984C10.1505 4.984 10.3405 5.174 10.3405 5.4055L10.3415 8.58601ZM6.5135 8.58601C6.51297 8.69753 6.46826 8.80431 6.38916 8.88293C6.31007 8.96156 6.20303 9.00564 6.0915 9.0055C5.9808 9.00458 5.87495 8.95999 5.79695 8.88144C5.71896 8.80288 5.67513 8.69671 5.675 8.58601V5.406C5.675 5.1745 5.8625 4.9845 6.0945 4.9845C6.3265 4.9845 6.514 5.1745 6.514 5.406L6.5135 8.58601ZM4.87 9.0055H3.2785C3.16709 9.00525 3.06028 8.96104 2.98127 8.8825C2.90226 8.80396 2.85742 8.69741 2.8565 8.58601V5.406C2.8565 5.1745 3.0465 4.9845 3.2785 4.9845C3.5105 4.9845 3.698 5.1745 3.698 5.406V8.1665H4.87C4.98126 8.1665 5.08796 8.2107 5.16663 8.28937C5.2453 8.36804 5.2895 8.47475 5.2895 8.58601C5.2895 8.69726 5.2453 8.80396 5.16663 8.88264C5.08796 8.96131 4.98126 9.0055 4.87 9.0055ZM16 6.8745C16 3.294 12.4085 0.380005 8 0.380005C3.5915 0.380005 0 3.294 0 6.8745C0 10.083 2.8465 12.7705 6.69 13.281C6.9505 13.3355 7.3045 13.453 7.396 13.6745C7.4765 13.8745 7.448 14.1845 7.422 14.396L7.3125 15.0755C7.281 15.276 7.151 15.865 8.0105 15.5055C8.8725 15.146 12.6225 12.787 14.302 10.854C15.4505 9.5965 16 8.3045 16 6.8745Z" fill="white"/>
</g>
<defs>
<clipPath id="clip0_16_14">
<rect width="16" height="16" fill="white"/>
</clipPath>
</defs>
</svg>
