<svg width="256" height="256" viewBox="0 0 256 256" fill="none" xmlns="http://www.w3.org/2000/svg">
<path d="M137.54 186.36C139.039 187.86 139.881 189.894 139.881 192.015C139.881 194.136 139.039 196.17 137.54 197.67L127.6 207.67C117.088 218.175 102.834 224.074 87.9723 224.07C73.111 224.065 58.8602 218.157 48.355 207.645C37.8498 197.133 31.9506 182.879 31.9553 168.017C31.96 153.156 37.8681 138.905 48.38 128.4L72.5 104.28C82.5969 94.175 96.1737 88.3106 110.452 87.8868C124.731 87.4629 138.632 92.5117 149.31 102C150.098 102.699 150.741 103.546 151.201 104.493C151.662 105.44 151.931 106.468 151.994 107.519C152.058 108.57 151.913 109.624 151.569 110.619C151.225 111.614 150.689 112.532 149.99 113.32C149.291 114.108 148.444 114.751 147.497 115.211C146.55 115.672 145.522 115.941 144.471 116.004C143.42 116.068 142.366 115.923 141.371 115.579C140.376 115.235 139.458 114.699 138.67 114C131.043 107.227 121.117 103.624 110.921 103.927C100.726 104.23 91.0312 108.416 83.82 115.63L59.7 139.72C52.197 147.223 47.9819 157.399 47.9819 168.01C47.9819 178.621 52.197 188.797 59.7 196.3C67.203 203.803 77.3792 208.018 87.99 208.018C98.6008 208.018 108.777 203.803 116.28 196.3L126.22 186.36C126.963 185.616 127.845 185.026 128.816 184.623C129.788 184.221 130.829 184.014 131.88 184.014C132.931 184.014 133.972 184.221 134.944 184.623C135.915 185.026 136.797 185.616 137.54 186.36ZM207.62 48.36C197.107 37.8701 182.862 31.979 168.01 31.979C153.158 31.979 138.913 37.8701 128.4 48.36L118.46 58.31C116.96 59.8111 116.118 61.8465 116.119 63.9685C116.12 66.0905 116.964 68.1252 118.465 69.625C119.966 71.1248 122.002 71.9668 124.124 71.9659C126.246 71.9649 128.28 71.1211 129.78 69.62L139.72 59.68C147.223 52.177 157.399 47.9619 168.01 47.9619C178.621 47.9619 188.797 52.177 196.3 59.68C203.803 67.1829 208.018 77.3592 208.018 87.97C208.018 98.5808 203.803 108.757 196.3 116.26L172.18 140.4C164.965 147.61 155.268 151.791 145.073 152.088C134.877 152.386 124.953 148.777 117.33 142C115.739 140.589 113.652 139.868 111.529 139.995C109.406 140.123 107.421 141.089 106.01 142.68C104.599 144.271 103.878 146.358 104.006 148.481C104.133 150.604 105.099 152.589 106.69 154C117.366 163.491 131.265 168.543 145.544 168.123C159.822 167.703 173.401 161.842 183.5 151.74L207.62 127.62C218.116 117.106 224.011 102.856 224.011 88C224.011 73.1435 218.116 58.8942 207.62 48.38V48.36Z" fill="black"/>
</svg>
