<svg xmlns="http://www.w3.org/2000/svg" viewBox="0 0 160 54"><title>logo_2</title><g id="text_outline_" data-name="text [outline]"><path d="M25.82,1.81q3.63.91,3.63,2.95a10.92,10.92,0,0,1-.68,2.94,19,19,0,0,1,3.17-.45h.91c1,.3,1.58.76,1.58,1.36s-1.58,1.59-4.76,2.94a7.15,7.15,0,0,0-3.17,2.5,10.05,10.05,0,0,1,4.08-.91,6.4,6.4,0,0,1,1.36.23c1.21.15,1.81.53,1.81,1.13s-1.44,1.44-4.3,2.49a15.72,15.72,0,0,0-4.53,2.27c2.86-.6,5.66-1.21,8.38-1.81a9.42,9.42,0,0,1,5.44.22c1.36.61,2,1.21,2,1.81,0,.76-.67,1.14-2,1.14A54.07,54.07,0,0,0,24,22.2c-.91,2.27-1.66,4.39-2.27,6.35,3.18-.6,6.42-1.14,9.75-1.59a6.17,6.17,0,0,0-2.5-4.3,6.73,6.73,0,0,1,3,.22,7,7,0,0,1,5,3.63q4.08-.23,7.93-.46a10.72,10.72,0,0,1,1.82-.22A7.64,7.64,0,0,1,51,27.41c1.05.76,1.59,1.52,1.59,2.27s-.84,1-2.5,1.13a24.85,24.85,0,0,1-7-.9,22.28,22.28,0,0,0-6.34-.46A64.76,64.76,0,0,0,36,38.74a66.77,66.77,0,0,0,.45,8.84c.15,1.66.23,2.79.23,3.4,0,1.81-.61,2.72-1.82,2.72a7.39,7.39,0,0,1-3.17-.91A39.48,39.48,0,0,1,19,44c4.54,2.27,7.93,3.33,10.2,3.18q2.72-.23,2.72-8.16c0-3.77-.08-6.8-.23-9.06a40,40,0,0,0-11.1,2q-1.14,2.27-2,4.53a7.35,7.35,0,0,1,4.08-1.59,5.12,5.12,0,0,1,3.4,1.36c.9.76,1.36,1.36,1.36,1.81,0,.91-.76,1.59-2.27,2a33.23,33.23,0,0,0-7,3.85Q22,40.11,22,38.74c0-.45-.68-.68-2-.68a5.5,5.5,0,0,0-2.49.46,12.33,12.33,0,0,1-2.72,3.39A8.42,8.42,0,0,1,8.6,44.63,8.07,8.07,0,0,1,5,43.73,9.74,9.74,0,0,0,11.1,40.1,32.59,32.59,0,0,0,15,33.76c-1.51.6-2.87,1.21-4.08,1.81a7.3,7.3,0,0,1-3.4,1.36,15,15,0,0,1-3.62.45,27.51,27.51,0,0,1-3.4-.22,61.3,61.3,0,0,1,11.78-5.67l4.08-1.36a43.7,43.7,0,0,0,2.49-6.34C16.83,25,15.25,26.05,14,27a3.51,3.51,0,0,1-1.59.45A2.71,2.71,0,0,1,10.87,27,6.17,6.17,0,0,1,8.38,24q2.71,0,8.15-2.27c2.12-.91,3.4-2.11,3.85-3.62a7.83,7.83,0,0,1-2.26,1.13,3,3,0,0,1-1.81.68A1.44,1.44,0,0,1,15,19c-.46-.3-.68-1.05-.68-2.26a26.62,26.62,0,0,0,7.25-2.27A7.37,7.37,0,0,1,22,13.14a7.55,7.55,0,0,1-1.81.23A12.62,12.62,0,0,1,14.49,12q4.08-1.14,8.39-2.49A42.56,42.56,0,0,0,24,3.4a3.48,3.48,0,0,0-.91-2A5.06,5.06,0,0,1,25.82,1.81Z"/><path d="M82.05,11.55c2,.16,2.8,1.06,2.5,2.72Q83,23.11,82.73,25.83a33.42,33.42,0,0,0,7.48-8.16q1.82-2.49-.91-3.62a9.49,9.49,0,0,1,4.54.22q3.16.92,3.39,2,.22.69-.9,2a36.9,36.9,0,0,1-13.6,9.52,7.47,7.47,0,0,1-.22,1.81,53.33,53.33,0,0,1,19.93,9.74,4.64,4.64,0,0,1,2.27,3.85,5.4,5.4,0,0,1-3.85.46,21,21,0,0,0-11.56.9q3.4-1.8,6.57-3.62-4.53-4.75-13.14-8.61.22,7.47,1.14,14.73V51q-.69,3.62-4.08,1.13-6.35-4.76-12.24-9.74A17,17,0,0,1,65.74,44q-2.26,2-3.85-.45a7.65,7.65,0,0,1-.91-2,43.6,43.6,0,0,0,8.61-13.82,14.73,14.73,0,0,1-4.53.91,16.26,16.26,0,0,0-4.76.68,7.45,7.45,0,0,1,3-2.72,43,43,0,0,1,8.61-4.08q2.94-1.12,4.76,0a7.36,7.36,0,0,1-.91,3.17q-1.36,2.71-4.53,8.16,2.49-1.82,5-3.85l-1.81-.46q.45-.9,2-.9h1.36l1.36-1.36q0-5.89-.23-11.78c-.75-.3-1.74,0-2.94.9Q72.54,19,68,16.77,75.26,12,82.05,11.55ZM78,30.59a119.9,119.9,0,0,1-10.2,11.55,44.61,44.61,0,0,0,8.38,3.4c1.82.3,2.8-.38,3-2V30.81A3.7,3.7,0,0,0,78,30.59Zm4.75-29c2.57.75,3.86,1.66,3.86,2.71s-.84,1.59-2.5,1.59q-4.08.23-9.74,4.53c1.51-1.21,3-2.41,4.31-3.62q1.8-2.26-.91-3.4c-.91-.3-1.74-.6-2.49-.91A8,8,0,0,1,82.73,1.59Z"/><path d="M114.73,25.15a35.21,35.21,0,0,1,1.58-5.44,6.63,6.63,0,0,1,3-3.62q0,4.31.22,8.61a6.37,6.37,0,0,1-.68,3.85C116.23,28.55,114.87,27.41,114.73,25.15Zm27-5.67q6.8,0,2,5.44a17.32,17.32,0,0,1-1.59,1.81c2,.16,2.26,1.06.91,2.72a31.23,31.23,0,0,1-5,4.76,5.76,5.76,0,0,1,.68,1.36,6.52,6.52,0,0,1,4.76,0c1.81.61,2.72,1.21,2.72,1.81,0,1.06-.91,1.59-2.72,1.59a21.56,21.56,0,0,0-5.21.68q-.47,2.49-.91,5.21c2.42-.15,4.83-.23,7.25-.23q5.2,0,7,1.14,3,1.57,2.5,3.62a6.66,6.66,0,0,1-2.5,0Q144,48,139.42,50.75a19.77,19.77,0,0,1,4.31-3,29.26,29.26,0,0,0-15.18,1.82c-2.72,1.05-5,1-6.8-.23a4,4,0,0,1-1.81-2.72,23.88,23.88,0,0,0,6.57-.45q3.39-.45,6.57-.91c.3-1.51.52-2.94.68-4.3-2.42,1.51-4.61,1.44-6.57-.23A2.45,2.45,0,0,1,126.05,39a13.31,13.31,0,0,0,7.48-3.85,9.11,9.11,0,0,0-1.13-3.4A2.41,2.41,0,0,1,131.26,34q-5-1.35-5.66-10c0-1.21.38-2,1.13-2.27a5.06,5.06,0,0,0,.91,1.81A31.32,31.32,0,0,1,141.69,19.48ZM133.76,1.59q4.08.9,4.3,4.53a37.2,37.2,0,0,1,.23,4.08,14.71,14.71,0,0,0,4.3-4.31l-1.13-1.13a8.18,8.18,0,0,1,3.85,0,6.23,6.23,0,0,1,2.95,1.58,5,5,0,0,1-2,1.82q-4.08,2.49-8.16,4.75v1.36a51.17,51.17,0,0,1,16.54-.45A29.4,29.4,0,0,1,157.77,15q2,1.14,2,2c0,.61-.6,1-1.81,1.14q-9.3.68-13.14,1.81A16.91,16.91,0,0,0,151,15.86l-.23-.45a50.66,50.66,0,0,0-14.95,1.81q-3.63,1.59-7.25,2.94a20.46,20.46,0,0,1-7.48-.9,18,18,0,0,1,6.34-2.72c2.12-.6,4.23-1.13,6.35-1.59L131,12.23l1.81.46a7.6,7.6,0,0,0,.45-3.63,32.85,32.85,0,0,0-4.07,3.63,9.15,9.15,0,0,0-1.82,1.36c-1.36.9-2.34,1-2.94.22-.61-.6-.76-1.58-.46-2.94.61-2.12,1.51-3.32,2.72-3.63l.23.46q-.46,2.72,2.27,1.81a23.06,23.06,0,0,1,4.07-1.81,10.82,10.82,0,0,0-2.49-6.8A4.14,4.14,0,0,1,133.76,1.59Zm-.23,22.2a12,12,0,0,1-5.44,1.13c.91,1.51,1.89,3,2.95,4.53a24,24,0,0,0,9.29-7.25v-.45A14.93,14.93,0,0,0,133.53,23.79Zm3.4,7.25a18,18,0,0,1-2.72.68,8.9,8.9,0,0,0,1.81.68C136.32,32,136.62,31.49,136.93,31Z"/></g></svg>