<svg xmlns="http://www.w3.org/2000/svg" viewBox="0 0 222 74"><title>logo</title><g id="text_outline_" data-name="text [outline]"><path d="M7.16,36.76c1,.14,1.55.66,1.55,1.55a10.38,10.38,0,0,1-.35,2.74c.37,0,1,0,1.76-.07a6.05,6.05,0,0,0,1.26-.14c.85-.09,1.38-.14,1.62-.14a3.28,3.28,0,0,1,1.27.28q1.05.5,1.05,1c0,.18-.28.28-.84.28A11.44,11.44,0,0,1,12.37,42c-1.27,0-2.16-.07-2.67-.07L8.08,42a15.17,15.17,0,0,1-.63,2.18A3,3,0,0,1,5.83,45.9a11.18,11.18,0,0,0,.77-3.58,20.18,20.18,0,0,0-3.09,1,2,2,0,0,1-.78.14,3.56,3.56,0,0,1-2.25-.91c2.11-.42,4.18-.84,6.19-1.27.33-2.34.28-3.72-.14-4.15-.14-.09-.21-.18-.21-.28A1.63,1.63,0,0,1,7.16,36.76ZM7,48.93c.71.65.87,1.17.5,1.54a.62.62,0,0,1-.29.07c-.75,0-1.4-.49-2-1.47a6.3,6.3,0,0,1-.71-2c0-.75,0-1.17.28-1.27A10,10,0,0,0,7,48.93Zm-.56-2.74a11.44,11.44,0,0,1,3.87-.92h.49c.14,0,.37,0,.7.07.75.19,1.13.42,1.13.7A2,2,0,0,1,12,47.31c-.33.42-.68.84-1.06,1.27.61.32.61.63,0,.91A26.49,26.49,0,0,0,7.59,51a11.1,11.1,0,0,0,1.26-1.2,1,1,0,0,1-1.33-.91,8.61,8.61,0,0,0,1.75-1.06,2.78,2.78,0,0,0,.85-.91,1.61,1.61,0,0,0,.21-.63.19.19,0,0,0-.21-.22,3.2,3.2,0,0,0-.92.15c-.28.09-.65.23-1.12.42a2.45,2.45,0,0,1-.7.14A4.22,4.22,0,0,1,5.9,46.4,1.47,1.47,0,0,1,6.39,46.19Z"/><path d="M23.35,38.38a2,2,0,0,0,.77-.35,7.19,7.19,0,0,1,3.45-1.2c.61,0,.91.17.91.5a.59.59,0,0,1-.35.49A22.24,22.24,0,0,1,25,40.07a4.3,4.3,0,0,1,.84-.14c.47,0,.7.16.7.49a5.16,5.16,0,0,1-.07.77h.22c.74.05,1.12.24,1.12.57s-.45.77-1.34,1.47a6.5,6.5,0,0,0-.07.92,1.21,1.21,0,0,1,1.13,0c.42.18.63.35.63.49s-.23.33-.7.42c-.7.24-1.41.49-2.11.77a1.17,1.17,0,0,1,1.05.85c1-.14,2.07-.26,3.1-.35L31,46.19a2.81,2.81,0,0,1,1.55.56c.47.33.7.56.7.7s-.09.26-.28.35a7.78,7.78,0,0,1-1.33-.14,19.2,19.2,0,0,0-3-.28c-.56,0-1.45,0-2.67.14q-2.88,5-5.62,3.94a7.19,7.19,0,0,0,3.72-3.59,27.62,27.62,0,0,0-3.65,1.55,2.38,2.38,0,0,1-.92.21c-.51,0-1-.42-1.47-1.27,1.07.33,2.88-.37,5.41-2.1-.94.42-1.52.11-1.76-.92a3.28,3.28,0,0,0,2-.56l-.42-.28c-.66-.38-1-.71-1-1s.16-.32.49-.56A10.24,10.24,0,0,1,25,41.69c0-.61-.07-.92-.21-.92a2.93,2.93,0,0,0-1.13.56l-.56.43a1.05,1.05,0,0,1-1.34,0,1.68,1.68,0,0,1-.49-.78,6.11,6.11,0,0,0,2.81-1.12,7.86,7.86,0,0,0,2.25-2.39c-.51-.1-1.38.47-2.6,1.68a2.71,2.71,0,0,1-.7.64.78.78,0,0,1-.42.14q-.28,0-.42-.57a2.35,2.35,0,0,1-.08-.63,2.38,2.38,0,0,1,.43-1.47C22.72,38,23,38.38,23.35,38.38Zm1.27,7.81a13.8,13.8,0,0,0-3.1,1.61c1.08-.32,2-.58,2.88-.77A1.76,1.76,0,0,0,24.62,46.19ZM25,42.88a4.54,4.54,0,0,1-1.48.63c-.47.05-.7.17-.7.35s.23.22.7.36a6.45,6.45,0,0,0,.84.21L25,44A10.71,10.71,0,0,0,25,42.88Zm4.29,7.38a3.59,3.59,0,0,1,1.75,1.48,1.18,1.18,0,0,1,.15.56c0,.24-.19.35-.57.35a3.24,3.24,0,0,1-1-.35A3.8,3.8,0,0,0,28.62,52a4.26,4.26,0,0,0-1.61.35c1.07-.51,1.61-.84,1.61-1a8.79,8.79,0,0,0-2.74-1.62A4.51,4.51,0,0,1,29.33,50.26Z"/><path d="M35.81,40.7a16,16,0,0,0,2.74-3.09,1.75,1.75,0,0,1,.14.7c.14.66-.28,1.45-1.26,2.39a4.49,4.49,0,0,1,1.26-.35.68.68,0,0,1,.49.14.39.39,0,0,1,.15.28,2.69,2.69,0,0,1-.15.49,19.78,19.78,0,0,1-2.1,4.22,2.49,2.49,0,0,1,.77,2c-.05.66-.07,1.29-.07,1.9a4.49,4.49,0,0,1-.07.77c-.19,1-.54,1-1.06.07a3,3,0,0,1-.21-1.75,14.19,14.19,0,0,0,.28-2.4,3.29,3.29,0,0,1-2.88,1.55,13.08,13.08,0,0,0,3.87-6.33,4,4,0,0,0-1.34.64,4.29,4.29,0,0,1-.56.35C35.15,41.83,35.15,41.31,35.81,40.7Zm2.74,6a4.17,4.17,0,0,1,.92-2.46c.14-.24.25-.36.35-.36A4.31,4.31,0,0,1,40,45a1.78,1.78,0,0,0,.91-.7,14.4,14.4,0,0,0-1.12,2.32,1.59,1.59,0,0,1-.71.84A.87.87,0,0,1,38.55,46.68Zm1.76-4.85a5.52,5.52,0,0,1,.7-.29c0-2.43,0-4-.07-4.57a2.31,2.31,0,0,1,1.41,1.48,5.12,5.12,0,0,1-.07,1.83c-.05.33-.1.66-.14,1a6.31,6.31,0,0,1,1-.14,2,2,0,0,1,.56.07c.33.19.5.35.5.5s-.19.3-.57.35a6.11,6.11,0,0,0-1.61.28A33,33,0,0,0,42.14,48a2.28,2.28,0,0,1-.21,1.34,1.41,1.41,0,0,1-.92-.7A2.26,2.26,0,0,1,40.66,47,19,19,0,0,0,41,42.6l-2.25.14A3.52,3.52,0,0,1,40.31,41.83Zm2.74,2.25A1.47,1.47,0,0,1,44.46,46c-.05,0-.1.05-.14.14a.63.63,0,0,1-.28.08.86.86,0,0,1-.5-.5,8.49,8.49,0,0,0-1.19-1.61A1.64,1.64,0,0,1,43.05,44.08Zm4.43.56a1.34,1.34,0,0,1,.77,1.26c0,1.36,0,2.7,0,4A1.82,1.82,0,0,1,47,51.6a17.43,17.43,0,0,0-4.64,1.12,36.52,36.52,0,0,1,3.37-2,2.29,2.29,0,0,0,1-1.83V46.26a3,3,0,0,0-.71-2A2.68,2.68,0,0,1,47.48,44.64Zm-4.43-6.19a1.67,1.67,0,0,1,1.55.84,1.07,1.07,0,0,1,.14.57c0,.18-.12.28-.35.28a1.17,1.17,0,0,1-.78-.49,4.32,4.32,0,0,0-1-1.06A.78.78,0,0,1,43.05,38.45Zm4.29,1.06a2.7,2.7,0,0,1,1-.22,1.08,1.08,0,0,1,.49.15c.18.09.28.18.28.28s-.47.65-1.41,1.4c-.65.57-1.17,1-1.54,1.41,1.07-.14,2.1-.33,3.09-.56a1.87,1.87,0,0,1,1.34.07c.46.18.72.44.77.77a3,3,0,0,1-.92.14,9.81,9.81,0,0,0-5.06.91c-.84.38-1.43.19-1.76-.56a3.17,3.17,0,0,0,1.83-.7,6.11,6.11,0,0,0,1.34-1.83,2.66,2.66,0,0,1-1.62-.35A15.62,15.62,0,0,1,47.34,39.51Z"/><path d="M86.82,21.81q3.63.92,3.63,3a10.92,10.92,0,0,1-.68,2.94,19,19,0,0,1,3.17-.45h.9c1.06.3,1.59.76,1.59,1.36s-1.59,1.59-4.76,2.94a7.15,7.15,0,0,0-3.17,2.5,10.05,10.05,0,0,1,4.08-.91,6.4,6.4,0,0,1,1.36.23c1.21.15,1.81.53,1.81,1.13s-1.44,1.44-4.3,2.49a15.72,15.72,0,0,0-4.53,2.27c2.86-.6,5.66-1.21,8.38-1.81a9.42,9.42,0,0,1,5.44.22c1.35.61,2,1.21,2,1.81,0,.76-.68,1.14-2,1.14A54.07,54.07,0,0,0,85,42.2q-1.37,3.4-2.27,6.35c3.18-.6,6.42-1.14,9.75-1.59a6.17,6.17,0,0,0-2.5-4.3,6.73,6.73,0,0,1,3,.22,7,7,0,0,1,5,3.63q4.08-.23,7.93-.46a10.72,10.72,0,0,1,1.82-.22,7.64,7.64,0,0,1,4.3,1.58c1,.76,1.59,1.52,1.59,2.27s-.84,1-2.5,1.13a24.85,24.85,0,0,1-7-.9,22.28,22.28,0,0,0-6.34-.46A64.76,64.76,0,0,0,97,58.74a66.77,66.77,0,0,0,.45,8.84c.15,1.66.23,2.79.23,3.4,0,1.81-.61,2.72-1.82,2.72a7.39,7.39,0,0,1-3.17-.91A39.48,39.48,0,0,1,80,64c4.54,2.27,7.93,3.33,10.2,3.18q2.72-.22,2.72-8.16c0-3.77-.08-6.8-.23-9.06a39.89,39.89,0,0,0-11.1,2q-1.14,2.27-2,4.53a7.35,7.35,0,0,1,4.08-1.59,5.12,5.12,0,0,1,3.4,1.36c.9.76,1.36,1.36,1.36,1.81,0,.91-.76,1.59-2.27,2a33.23,33.23,0,0,0-7,3.85c2.56-2.56,3.85-4.3,3.85-5.21,0-.45-.68-.68-2-.68a5.5,5.5,0,0,0-2.49.46,12.33,12.33,0,0,1-2.72,3.39,8.42,8.42,0,0,1-6.12,2.72,8,8,0,0,1-3.62-.9,9.69,9.69,0,0,0,6.11-3.63A32.51,32.51,0,0,0,76,53.76c-1.52.6-2.87,1.21-4.08,1.81a7.3,7.3,0,0,1-3.4,1.36,15,15,0,0,1-3.63.45,27.48,27.48,0,0,1-3.39-.22,61.3,61.3,0,0,1,11.78-5.67l4.08-1.36a43.7,43.7,0,0,0,2.49-6.34C77.83,45,76.25,46.05,75,47a3.55,3.55,0,0,1-1.59.45A2.71,2.71,0,0,1,71.87,47,6.17,6.17,0,0,1,69.38,44q2.72,0,8.15-2.27c2.12-.91,3.4-2.11,3.85-3.62a7.83,7.83,0,0,1-2.26,1.13,3,3,0,0,1-1.81.68A1.44,1.44,0,0,1,76,39c-.46-.3-.68-1.05-.68-2.26a26.72,26.72,0,0,0,7.25-2.27A7.37,7.37,0,0,1,83,33.14a7.55,7.55,0,0,1-1.81.23A12.62,12.62,0,0,1,75.49,32c2.72-.76,5.51-1.59,8.39-2.49A42.56,42.56,0,0,0,85,23.4a3.48,3.48,0,0,0-.91-2A5.06,5.06,0,0,1,86.82,21.81Z"/><path d="M143.05,31.55c2,.16,2.8,1.06,2.5,2.72Q144,43.1,143.73,45.83a33.42,33.42,0,0,0,7.48-8.16q1.81-2.49-.91-3.62a9.44,9.44,0,0,1,4.53.22c2.12.61,3.25,1.29,3.4,2q.22.69-.9,2a36.9,36.9,0,0,1-13.6,9.52,7.47,7.47,0,0,1-.22,1.81,53.33,53.33,0,0,1,19.93,9.74,4.64,4.64,0,0,1,2.27,3.85,5.4,5.4,0,0,1-3.85.46,21,21,0,0,0-11.56.9q3.4-1.8,6.57-3.62-4.53-4.75-13.14-8.61.22,7.47,1.14,14.73V71q-.69,3.61-4.08,1.13-6.34-4.76-12.24-9.74A17,17,0,0,1,126.74,64q-2.26,2-3.85-.45a7.65,7.65,0,0,1-.91-2,43.6,43.6,0,0,0,8.61-13.82,14.73,14.73,0,0,1-4.53.91,16.26,16.26,0,0,0-4.76.68,7.45,7.45,0,0,1,3-2.72,43,43,0,0,1,8.61-4.08q2.94-1.12,4.76,0a7.36,7.36,0,0,1-.91,3.17q-1.36,2.71-4.53,8.16,2.49-1.82,5-3.85l-1.81-.46q.45-.9,2-.9h1.36l1.36-1.36q0-5.89-.23-11.78c-.75-.3-1.74,0-2.94.9q-3.41,2.73-7.93.46Q136.26,32,143.05,31.55Zm-4.07,19a119.9,119.9,0,0,1-10.2,11.55,44.61,44.61,0,0,0,8.38,3.4c1.82.3,2.8-.38,3-2V50.81A3.7,3.7,0,0,0,139,50.59Zm4.75-29c2.57.75,3.85,1.66,3.85,2.71s-.83,1.59-2.49,1.59q-4.08.22-9.74,4.53c1.51-1.21,3-2.41,4.31-3.62q1.8-2.27-.91-3.4c-.91-.3-1.74-.6-2.49-.91A8,8,0,0,1,143.73,21.59Z"/><path d="M175.72,45.15a35.93,35.93,0,0,1,1.59-5.44,6.59,6.59,0,0,1,2.95-3.62q0,4.3.22,8.61a6.37,6.37,0,0,1-.68,3.85C177.23,48.55,175.87,47.41,175.72,45.15Zm27-5.67q6.8,0,2,5.44a16.1,16.1,0,0,1-1.58,1.81c2,.16,2.26,1.06.9,2.72a30.7,30.7,0,0,1-5,4.76,5.76,5.76,0,0,1,.68,1.36,6.52,6.52,0,0,1,4.76,0c1.81.61,2.72,1.21,2.72,1.81,0,1.06-.91,1.59-2.72,1.59a21.56,21.56,0,0,0-5.21.68q-.47,2.49-.91,5.21,3.62-.23,7.25-.23,5.2,0,7,1.14,3,1.58,2.5,3.62a6.66,6.66,0,0,1-2.5,0Q205,68,200.42,70.75a20,20,0,0,1,4.3-3,29.28,29.28,0,0,0-15.18,1.82c-2.71,1-5,1-6.79-.23a4,4,0,0,1-1.81-2.72,23.88,23.88,0,0,0,6.57-.45q3.39-.45,6.57-.91c.3-1.51.52-2.94.68-4.3-2.42,1.51-4.61,1.44-6.57-.23A2.45,2.45,0,0,1,187.05,59a13.31,13.31,0,0,0,7.48-3.85,9.11,9.11,0,0,0-1.13-3.4A2.41,2.41,0,0,1,192.26,54q-5-1.35-5.66-10c0-1.21.37-2,1.13-2.27a5.06,5.06,0,0,0,.91,1.81A31.32,31.32,0,0,1,202.69,39.48Zm-7.93-17.89c2.71.6,4.15,2.11,4.3,4.53a37.2,37.2,0,0,1,.23,4.08,14.71,14.71,0,0,0,4.3-4.31l-1.13-1.13a8.18,8.18,0,0,1,3.85,0,6.23,6.23,0,0,1,2.95,1.58,5,5,0,0,1-2,1.82q-4.08,2.49-8.16,4.75v1.36a51.17,51.17,0,0,1,16.54-.45A29.4,29.4,0,0,1,218.77,35q2,1.14,2,2c0,.61-.6,1-1.81,1.14q-9.3.67-13.14,1.81A16.78,16.78,0,0,0,212,35.86l-.22-.45a50.77,50.77,0,0,0-15,1.81q-3.61,1.59-7.25,2.94a20.41,20.41,0,0,1-7.47-.9,18,18,0,0,1,6.34-2.72c2.12-.6,4.23-1.13,6.35-1.59L192,32.23l1.81.46a7.6,7.6,0,0,0,.45-3.63,33.49,33.49,0,0,0-4.08,3.63,9.36,9.36,0,0,0-1.81,1.36c-1.36.9-2.34,1-2.94.22-.61-.6-.76-1.58-.46-2.94.61-2.12,1.51-3.32,2.72-3.63l.23.46c-.31,1.81.45,2.41,2.26,1.81a23.48,23.48,0,0,1,4.08-1.81,10.82,10.82,0,0,0-2.49-6.8A4.14,4.14,0,0,1,194.76,21.59Zm-.23,22.2a12,12,0,0,1-5.44,1.13c.91,1.51,1.89,3,2.95,4.53a24,24,0,0,0,9.29-7.25v-.45A14.93,14.93,0,0,0,194.53,43.79Zm3.4,7.25a18,18,0,0,1-2.72.68,8.9,8.9,0,0,0,1.81.68C197.32,52,197.62,51.49,197.93,51Z"/></g></svg>