<svg xmlns="http://www.w3.org/2000/svg" xmlns:xlink="http://www.w3.org/1999/xlink" viewBox="0 0 344 62" width="344" height="62"><defs><style>.cls-1{fill:none;stroke:#000;stroke-miterlimit:10;stroke-width:2px;filter:url(#luminosity-noclip);}.cls-2{fill:#fff;}.cls-3{mask:url(#mask);}</style><filter id="luminosity-noclip" x="0" y="0" width="52" height="34" filterUnits="userSpaceOnUse" color-interpolation-filters="sRGB"><feFlood flood-color="#fff" result="bg"/><feBlend in="SourceGraphic" in2="bg"/></filter><mask id="mask" x="0" y="0" width="52" height="34" maskUnits="userSpaceOnUse"><path class="cls-1" d="M52,7.15c-5,0-26.52,1.93-21.39,15.49a5.15,5.15,0,0,0,1.86,2.41C39,29.55,45.88,25,45.88,18.74c0-10-15.45-11.59-19.88-11.59-4.92,0-23.37,1.9-19.3,15.18A4.89,4.89,0,0,0,8.42,24.8c6.58,4.91,13.76.27,13.76-6.06C22.18,8.69,4.43,7.15,0,7.15"/></mask></defs><title>tel-fff</title><g id="text_outline_" data-name="text [outline]"><path class="cls-2" d="M77.23,47.8a6.79,6.79,0,0,0-3.89,6.58A6.79,6.79,0,0,0,77.23,61v.25H72.16V47.55h5.07Z"/><path class="cls-2" d="M92.23,54.44a12.63,12.63,0,0,0,.53-1.69H82.45c0,1.29-.74,1.92-1.39,1.92-.41,0-.56-.23-.56-.44a.72.72,0,0,1,.44-.57A2,2,0,0,0,82,51.75h.25a3.45,3.45,0,0,1,.15.66h7.32a18,18,0,0,0,1.59-3.08l1.54.62a.36.36,0,0,1-.34.16l-.24,0a13.51,13.51,0,0,1-2.14,2.33h2.54l.63-.65,1.16,1.11a1,1,0,0,1-.57.16,8.79,8.79,0,0,1-1.47,1.52ZM91.1,54l1.1,1.05c-.13.13-.31.16-.69.17a11.56,11.56,0,0,1-3.26,3.24,20.71,20.71,0,0,0,5.68,1.68l0,.18a1.14,1.14,0,0,0-1,.88A18,18,0,0,1,87.38,59a20.91,20.91,0,0,1-6.44,2.21l-.08-.27a19.59,19.59,0,0,0,5.87-2.4,9.76,9.76,0,0,1-3-3.54H82.54l-.11-.36h7.94Zm-9.62-4.74a65.48,65.48,0,0,0,10.07-1.72l1.08,1.06a.39.39,0,0,1-.28.09,1.15,1.15,0,0,1-.5-.15,83.16,83.16,0,0,1-10.33,1Zm1.4.45c1.47.57,1.93,1.34,1.93,1.88a.58.58,0,0,1-.52.65.57.57,0,0,1-.41-.2,4.57,4.57,0,0,0-1.15-2.22ZM84,55a9.54,9.54,0,0,0,3.41,3,10.63,10.63,0,0,0,2.88-3Zm2.2-5.58c1.31.68,1.74,1.46,1.74,2s-.26.74-.56.74A.55.55,0,0,1,87,52a4.62,4.62,0,0,0-.91-2.44Z"/><path class="cls-2" d="M97.5,55.25a24.56,24.56,0,0,0,3.47-7.7l1.55.48c-.06.18-.19.28-.56.27a24.48,24.48,0,0,1-1.45,3.24l.56.21c0,.13-.17.24-.44.27v8.85a1,1,0,0,1-.78.34h-.18V53a13.73,13.73,0,0,1-2,2.44Zm12.66-4.74,1.24,1c-.12.22-.26.32-.68.32h-2v7.85c0,.83-.25,1.43-1.81,1.61,0-.84-.71-.93-2.07-1V60h2.46c.33,0,.43-.1.43-.37V51.78h-5.55l-.08-.35h5.63V47.56l1.65.15c0,.22-.1.32-.66.4v3.32h.75Zm-6.89,2.89c1.92,1.08,2.52,2.31,2.52,3.1,0,.53-.28.89-.6.89a.69.69,0,0,1-.47-.24,7.53,7.53,0,0,0-1.61-3.64Z"/><path class="cls-2" d="M118.78,48.39l1.25.93a1.08,1.08,0,0,1-.63.29V58.2s-.27.34-.93.34V57.46H116.2v1.45a.9.9,0,0,1-.78.32h-.15V48.52l1.11.47h1.94Zm-.31,1H116.2V53h2.27Zm-2.27,7.76h2.27V53.36H116.2Zm11.14-5.4,1.28.93c-.12.22-.28.31-.69.31h-8.26l-.09-.36h3.67V50.14h-3l-.09-.35h3V47.56l1.64.13c0,.26-.19.34-.69.42v1.68h1.62l.66-.87,1.27.91c-.12.22-.29.31-.71.31H124.2v2.45h2.46Zm-.77,3.55.65-.85,1.21.9c-.12.22-.28.31-.68.31H126v4.11c0,.79-.18,1.36-1.57,1.49,0-.78-.57-.88-1.65-.95V60h1.93c.27,0,.34,0,.34-.28V55.62H119.7l-.11-.36H125V53.45l1.55.12c0,.19-.12.29-.6.35v1.34Zm-5.5,1c1.5.74,2,1.61,2,2.22a.65.65,0,0,1-.58.73A.6.6,0,0,1,122,59a5.64,5.64,0,0,0-1.12-2.63Z"/><path class="cls-2" d="M136.78,52.81h-3.11v8c0,.06-.07.4-.94.4V48l1,.49h2.89l.41-.55,1.2.86a1,1,0,0,1-.56.26V53.3a1.14,1.14,0,0,1-.92.3Zm0-4h-3.11v1.59h3.11Zm-3.11,3.6h3.11V50.81h-3.11ZM142,54.89a1,1,0,0,1-.57.27v4.55a1.2,1.2,0,0,1-.92.32v-.69h-3.63v.51s-.13.33-.91.33v-6l1,.44h3.42l.41-.54Zm-1.49,0h-3.63v1.78h3.63Zm-3.63,4h3.63v-1.9h-3.63Zm7.19-11.09,1.28.94a1.16,1.16,0,0,1-.65.3V59.79c0,.77-.22,1.29-1.59,1.42,0-.83-.61-.92-1.68-1V60h2c.26,0,.32-.06.32-.22v-7H140.5v.42s-.13.32-.93.32V48.06l1,.45h3Zm-.33,1H140.5v1.59h3.23Zm-3.23,3.6h3.23V50.81H140.5Z"/><path class="cls-2" d="M148.85,61a6.79,6.79,0,0,0,3.89-6.58,6.79,6.79,0,0,0-3.89-6.58v-.25h5.07V61.21h-5.07Z"/><path class="cls-2" d="M171.51,54.58a3.09,3.09,0,0,1-2.7,1.51,3.14,3.14,0,0,1-3.32-3.36,3.38,3.38,0,0,1,3.6-3.6c1.93,0,3.7,1.46,3.7,5.2,0,2.93-.94,5.88-3.91,5.88-2.14,0-3.08-1.23-3.08-2,0-.35.17-.59.47-.59s.48.19.77.75a1.79,1.79,0,0,0,1.84,1.27c2.6,0,2.67-4.09,2.67-5.05Zm-2.44.91A2.41,2.41,0,0,0,171.46,53c0-1.54-.82-3.35-2.36-3.35s-2.36,1.27-2.36,3C166.74,53.45,167,55.49,169.07,55.49Z"/><path class="cls-2" d="M178.44,53.23a.75.75,0,1,1-.75-.8A.76.76,0,0,1,178.44,53.23Zm0,6.12a.76.76,0,1,1-.76-.8A.77.77,0,0,1,178.46,59.35Z"/><path class="cls-2" d="M183.56,59.07c-.76-.87-1.19-2.29-1.19-4.47S182.8,51,183.74,50a3.77,3.77,0,0,1,4.91,0c1,.92,1.39,2.46,1.39,4.56s-.43,3.6-1.2,4.47a3.63,3.63,0,0,1-5.28,0Zm0-4.46c0,2.37.34,5,2.58,5s2.6-2.39,2.6-5c0-2.34-.43-3.6-1-4.24a2.14,2.14,0,0,0-1.63-.68C184.31,49.69,183.59,51.43,183.59,54.61Z"/><path class="cls-2" d="M195,59.07c-.76-.87-1.19-2.29-1.19-4.47s.43-3.64,1.37-4.56a3.77,3.77,0,0,1,4.91,0c1,.92,1.39,2.46,1.39,4.56s-.43,3.6-1.19,4.47a3.43,3.43,0,0,1-2.66,1.14A3.38,3.38,0,0,1,195,59.07Zm0-4.46c0,2.37.34,5,2.59,5s2.59-2.39,2.59-5c0-2.34-.42-3.6-1-4.24a2.13,2.13,0,0,0-1.62-.68C195.74,49.69,195,51.43,195,54.61Z"/><path class="cls-2" d="M218.53,53.7a4.51,4.51,0,0,1-3.68,2.09,5.69,5.69,0,0,1-3.18-1,5.35,5.35,0,0,0-3-1,4.28,4.28,0,0,0-3.18,1.51l-.23-.19a4.54,4.54,0,0,1,3.69-2.1,5.77,5.77,0,0,1,3.18,1,5.35,5.35,0,0,0,3,1,4.27,4.27,0,0,0,3.18-1.5Z"/><path class="cls-2" d="M225.72,51.53c0-.6-.09-.87-.37-.87a3.33,3.33,0,0,0-1,.3l-.12-.45a12.18,12.18,0,0,0,2.52-1.28l.16.09v9c0,1.09.09,1.18,1.4,1.18V60h-4.05v-.48c1.38,0,1.47-.09,1.47-1.18Z"/><path class="cls-2" d="M238.68,54.16c1.31.51,2.58,1.65,2.58,3,0,1.55-1.12,3-3.72,3-2,0-3.61-1-3.61-3,0-.89.54-2,2.43-2.78v0a3,3,0,0,1-2.11-2.77c0-1.17.93-2.52,3.31-2.52s3.3,1.2,3.3,2.53-.87,2-2.18,2.45ZM240,57.4a2.2,2.2,0,0,0-.89-1.61,6.43,6.43,0,0,0-2-1,2.71,2.71,0,0,0-2,2.46,2.29,2.29,0,0,0,2.45,2.39A2.2,2.2,0,0,0,240,57.4Zm-4.61-5.9c0,1.31,1.21,1.88,2.5,2.33,1-.41,1.87-1,1.87-2.18,0-.77-.38-1.95-2.2-1.95C236.08,49.7,235.37,50.54,235.37,51.5Z"/><path class="cls-2" d="M246.84,53.23a.77.77,0,0,1-.75.79.8.8,0,1,1,.75-.79Zm0,6.12a.75.75,0,1,1-.75-.8A.77.77,0,0,1,246.85,59.35Z"/><path class="cls-2" d="M252,59.07c-.77-.87-1.2-2.29-1.2-4.47s.43-3.64,1.38-4.56a3.77,3.77,0,0,1,4.91,0c1,.92,1.39,2.46,1.39,4.56s-.43,3.6-1.2,4.47a3.39,3.39,0,0,1-2.65,1.14A3.35,3.35,0,0,1,252,59.07Zm0-4.46c0,2.37.34,5,2.58,5s2.6-2.39,2.6-5c0-2.34-.43-3.6-1-4.24a2.13,2.13,0,0,0-1.62-.68C252.71,49.69,252,51.43,252,54.61Z"/><path class="cls-2" d="M263.38,59.07c-.77-.87-1.19-2.29-1.19-4.47s.42-3.64,1.37-4.56a3.77,3.77,0,0,1,4.91,0c1,.92,1.39,2.46,1.39,4.56s-.43,3.6-1.2,4.47a3.63,3.63,0,0,1-5.28,0Zm0-4.46c0,2.37.34,5,2.58,5s2.6-2.39,2.6-5c0-2.34-.43-3.6-1-4.24a2.17,2.17,0,0,0-1.63-.68C264.13,49.69,263.41,51.43,263.41,54.61Z"/></g><g id="icons"><path class="cls-2" d="M80.76,1.13c7.27,0,9.86,8.25,9.86,15.77,0,7.13-2.59,15.82-9.91,15.82s-10-8-10-15.77c0-7.13,2.69-15.82,10-15.82Zm-.15,1.61c-4.39,0-5.56,7.33-5.56,14.11s1.41,14.21,5.66,14.21,5.57-7.32,5.57-14.16S85.06,2.74,80.66,2.74Z"/><path class="cls-2" d="M96.7,32.14V30.82c4.44-.34,4.69-.73,4.69-4.25V7.77c0-2.54-.2-2.78-2.35-2.88l-2.34-.1V3.67a42.67,42.67,0,0,0,8.69-2.54V26.57c0,3.52.29,3.91,4.74,4.25v1.32Z"/><path class="cls-2" d="M136.65,25.74c-.63,2.05-1.12,4.2-1.71,6.4H116.68V31c2.74-2.68,5.47-5.47,7.91-8.3,3-3.61,6.11-7.61,6.11-11.81s-2.15-6.5-5.77-6.5c-3.32,0-5.37,2.64-6.64,4.54l-1.07-1L120,4a8.88,8.88,0,0,1,6.59-2.88,8,8,0,0,1,8.21,8.25c0,4.25-2,7.13-6.45,11.92l-6.93,7.27h9.13c2.64,0,3.27-.19,4.74-3.27Z"/><path class="cls-2" d="M152,1.13c7.28,0,9.87,8.25,9.87,15.77,0,7.13-2.59,15.82-9.91,15.82s-10-8-10-15.77c0-7.13,2.68-15.82,10-15.82Zm-.14,1.61c-4.4,0-5.57,7.33-5.57,14.11s1.42,14.21,5.67,14.21,5.56-7.32,5.56-14.16-1.22-14.16-5.61-14.16Z"/><path class="cls-2" d="M179.92,22.47H168.78l.69-2.69h11.18Z"/><path class="cls-2" d="M187,32.14V30.82c4.45-.34,4.69-.73,4.69-4.25V7.77c0-2.54-.19-2.78-2.34-2.88L187,4.79V3.67a42.77,42.77,0,0,0,8.7-2.54V26.57c0,3.52.29,3.91,4.73,4.25v1.32Z"/><path class="cls-2" d="M218.91,13.78c4.3.83,6.79,3.85,6.79,7.42,0,7.91-9.28,11.52-12.8,11.52A8.16,8.16,0,0,1,208,31.06a1.87,1.87,0,0,1-.78-1.76,2.76,2.76,0,0,1,1.12-1.61.85.85,0,0,1,1.18,0,9,9,0,0,0,6.05,2.49c3.47,0,5.91-2.58,5.91-7.42a6,6,0,0,0-6.2-6.3,11.09,11.09,0,0,0-3.13.54l-.34-1.42c4.49-1.41,7.81-3.32,7.81-6.93A4.31,4.31,0,0,0,215,4.06c-2.68,0-4.63,2.05-5.86,3.86l-1-1,2.15-3.07a8.42,8.42,0,0,1,6.15-2.74h.05c4.39,0,7.27,2.74,7.27,6.45A4.73,4.73,0,0,1,222.23,11a21.72,21.72,0,0,1-3.32,2.64Z"/><path class="cls-2" d="M244.14,22.47H233l.68-2.69h11.18Z"/><path class="cls-2" d="M260.1,13.78a7.65,7.65,0,0,1,3.08-.83A8.66,8.66,0,0,1,272,22c0,5.81-4.15,10.74-10,10.74-5.71,0-10-4.68-10-12.2A18.94,18.94,0,0,1,264.55,2.4,41.68,41.68,0,0,1,270.8.84l.34,1.56a22.87,22.87,0,0,0-5.32,1.71,15.77,15.77,0,0,0-9,11.28Zm1.13,1.9a9.92,9.92,0,0,0-4.64,1.37,13.65,13.65,0,0,0-.3,3.37c0,5.86,2.49,10.64,6.5,10.64,3.81,0,5-4.1,5-7.32,0-4-2-8.06-6.5-8.06Z"/><path class="cls-2" d="M296.57,2.3c-4.59,9.91-9.14,19.88-13.82,29.93l-3.62.49-.34-.53a260.18,260.18,0,0,0,14.5-26.91H282.75c-3.23,0-3.52.44-4.69,3.66h-1.42c.44-2.68.69-5.12.88-7.22h18.65Z"/><path class="cls-2" d="M306.91,13.78A7.57,7.57,0,0,1,310,13c5.23,0,8.79,4,8.79,9,0,5.81-4.15,10.74-10,10.74-5.71,0-10-4.68-10-12.2A18.94,18.94,0,0,1,311.35,2.4,42,42,0,0,1,317.6.84l.34,1.56a22.87,22.87,0,0,0-5.32,1.71,15.77,15.77,0,0,0-9,11.28Zm1.12,1.9a9.92,9.92,0,0,0-4.64,1.37,14.2,14.2,0,0,0-.29,3.37c0,5.86,2.49,10.64,6.49,10.64,3.81,0,5-4.1,5-7.32,0-4-2.05-8.06-6.49-8.06Z"/><path class="cls-2" d="M343.37,2.3c-4.59,9.91-9.13,19.88-13.82,29.93l-3.61.49-.35-.53A262.22,262.22,0,0,0,340.1,5.28H329.55c-3.22,0-3.52.44-4.69,3.66h-1.41c.44-2.68.68-5.12.88-7.22H343Z"/><g class="cls-3"><rect class="cls-2" width="52" height="34"/></g></g></svg>