<svg xmlns="http://www.w3.org/2000/svg" xmlns:xlink="http://www.w3.org/1999/xlink" viewBox="0 0 344 62" width="344" height="62">
	<defs>
		<style>.cls-1{fill:none;stroke:#000;stroke-miterlimit:10;stroke-width:2px;filter:url(#luminosity-noclip);}.cls-2{fill:#000;}.cls-3{mask:url(#mask);}</style>
<filter id="luminosity-noclip" x="0" y="0" width="52" height="34" filterUnits="userSpaceOnUse" color-interpolation-filters="sRGB">
	<feFlood flood-color="#fff" result="bg"/>
<feBlend in="SourceGraphic" in2="bg"/>
</filter>
<mask id="mask" x="0" y="0" width="52" height="34" maskUnits="userSpaceOnUse">
	<path class="cls-1" d="M52,7.15c-5,0-26.52,1.93-21.39,15.49a5.15,5.15,0,0,0,1.86,2.41C39,29.55,45.88,25,45.88,18.74c0-10-15.45-11.59-19.88-11.59-4.92,0-23.37,1.9-19.3,15.18A4.89,4.89,0,0,0,8.42,24.8c6.58,4.91,13.76.27,13.76-6.06C22.18,8.69,4.43,7.15,0,7.15"/>
</mask>
</defs>
<title>tel-fff</title>
<g id="text_outline_" data-name="text [outline]">
	<path class="cls-2" d="M94.85,50.09a5.53,5.53,0,0,0-3.16,5.35,5.52,5.52,0,0,0,3.16,5.35V61H90.73V49.89h4.12Z"/>
<path class="cls-2" d="M107.05,55.49a10.7,10.7,0,0,0,.43-1.37H99.1c0,1.05-.6,1.56-1.13,1.56-.33,0-.45-.19-.45-.36a.56.56,0,0,1,.36-.46,1.63,1.63,0,0,0,.87-1.55H99a4,4,0,0,1,.11.54h6a14.6,14.6,0,0,0,1.3-2.51l1.25.5a.29.29,0,0,1-.28.13l-.19,0a11.24,11.24,0,0,1-1.74,1.9h2.06l.52-.53.93.9c-.08.08-.22.1-.45.13a7.75,7.75,0,0,1-1.2,1.23Zm-.92-.35.9.85c-.11.11-.26.14-.57.15a9.32,9.32,0,0,1-2.65,2.62,16.76,16.76,0,0,0,4.62,1.37v.15a.94.94,0,0,0-.78.72,14.92,14.92,0,0,1-4.54-1.8A17.2,17.2,0,0,1,97.88,61l-.08-.22a15.88,15.88,0,0,0,4.78-2A7.74,7.74,0,0,1,100.12,56h-1l-.08-.29h6.45Zm-7.82-3.85a52.94,52.94,0,0,0,8.19-1.4l.87.86a.29.29,0,0,1-.22.08.93.93,0,0,1-.41-.12,66.79,66.79,0,0,1-8.4.82Zm1.14.36c1.2.47,1.57,1.09,1.57,1.54a.47.47,0,0,1-.42.52.45.45,0,0,1-.34-.16,3.63,3.63,0,0,0-.93-1.8Zm.94,4.3a7.76,7.76,0,0,0,2.77,2.47A8.55,8.55,0,0,0,105.5,56Zm1.79-4.54c1.07.55,1.42,1.19,1.42,1.65s-.22.6-.46.6a.45.45,0,0,1-.35-.18,3.72,3.72,0,0,0-.74-2Z"/>
<path class="cls-2" d="M111.34,56.15a20.18,20.18,0,0,0,2.82-6.26l1.26.4c0,.14-.16.22-.46.21a20.31,20.31,0,0,1-1.17,2.64l.45.17c0,.11-.14.19-.36.21v7.2a.85.85,0,0,1-.63.28h-.15V54.29a11.25,11.25,0,0,1-1.58,2Zm10.29-3.85,1,.77c-.1.18-.22.26-.55.26h-1.62v6.38c0,.67-.21,1.17-1.48,1.31,0-.68-.57-.76-1.68-.84V60h2c.26,0,.34-.09.34-.3V53.33h-4.51l-.07-.29h4.58V49.9L121,50c0,.18-.09.27-.54.33V53h.61ZM116,54.65c1.56.88,2,1.87,2,2.52,0,.43-.23.72-.49.72a.59.59,0,0,1-.39-.19,6.11,6.11,0,0,0-1.3-3Z"/>
<path class="cls-2" d="M128.64,50.57l1,.76a1,1,0,0,1-.51.24v7s-.22.27-.76.27V58h-1.85v1.18a.75.75,0,0,1-.63.26h-.12V50.68l.9.38h1.58Zm-.25.78h-1.85v3h1.85Zm-1.85,6.31h1.85v-3h-1.85Zm9.06-4.39,1,.76c-.1.18-.23.25-.56.25h-6.72l-.07-.29h3V52h-2.41l-.08-.29h2.49V49.9l1.33.11c0,.2-.16.28-.57.34v1.36h1.32l.54-.71,1,.75c-.09.18-.24.25-.57.25H133v2h2ZM135,56.16l.53-.69,1,.73c-.1.18-.23.25-.56.25h-1.45V59.8c0,.63-.14,1.1-1.27,1.21,0-.64-.47-.72-1.34-.78V60h1.57c.21,0,.27,0,.27-.22V56.45h-4.33l-.08-.29h4.41V54.69l1.26.09c0,.16-.09.24-.49.29v1.09ZM130.5,57c1.22.6,1.62,1.31,1.62,1.8s-.22.6-.47.6a.5.5,0,0,1-.37-.18,4.57,4.57,0,0,0-.91-2.14Z"/>
<path class="cls-2" d="M143.28,54.17h-2.53v6.5s-.06.33-.77.33V50.27l.84.4h2.35l.34-.44,1,.69a.89.89,0,0,1-.46.22v3.43a.93.93,0,0,1-.74.24Zm0-3.21h-2.53v1.29h2.53Zm-2.53,2.92h2.53V52.54h-2.53Zm6.76,2a.82.82,0,0,1-.46.22v3.69a.9.9,0,0,1-.75.27v-.57h-3v.42s-.1.27-.74.27V55.25l.8.36h2.79l.33-.44Zm-1.21,0h-3v1.45h3Zm-3,3.28h3V57.64h-3Zm5.84-9,1.05.76a.91.91,0,0,1-.53.24v8.67c0,.63-.18,1-1.3,1.16,0-.68-.49-.75-1.36-.82V60h1.62c.21,0,.26,0,.26-.18V54.17H146.3v.34s-.1.26-.75.26V50.31l.8.36h2.46Zm-.26.79H146.3v1.29h2.63Zm-2.63,2.92h2.63V52.54H146.3Z"/>
<path class="cls-2" d="M153.1,60.79a5.51,5.51,0,0,0,3.15-5.35,5.52,5.52,0,0,0-3.15-5.35v-.2h4.11V61H153.1Z"/>
<path class="cls-2" d="M171.52,55.61a2.51,2.51,0,0,1-2.2,1.22,2.55,2.55,0,0,1-2.7-2.73,2.76,2.76,0,0,1,2.93-2.93c1.57,0,3,1.19,3,4.24,0,2.37-.77,4.77-3.18,4.77-1.74,0-2.5-1-2.5-1.63,0-.29.14-.48.38-.48s.4.15.62.61a1.46,1.46,0,0,0,1.5,1c2.11,0,2.17-3.32,2.17-4.1Zm-2,.73a2,2,0,0,0,1.94-2c0-1.25-.67-2.72-1.92-2.72s-1.92,1-1.92,2.43C167.64,54.69,167.85,56.34,169.54,56.34Z"/>
<path class="cls-2" d="M177.16,54.51a.62.62,0,0,1-.61.64.65.65,0,0,1,0-1.29A.62.62,0,0,1,177.16,54.51Zm0,5a.61.61,0,1,1-.61-.64A.62.62,0,0,1,177.17,59.48Z"/>
<path class="cls-2" d="M181.32,59.26a5.42,5.42,0,0,1-1-3.64,5,5,0,0,1,1.12-3.7,3,3,0,0,1,4,0,5,5,0,0,1,1.13,3.7,5.42,5.42,0,0,1-1,3.64,2.8,2.8,0,0,1-2.16.92A2.76,2.76,0,0,1,181.32,59.26Zm0-3.63c0,1.92.27,4.09,2.1,4.09s2.11-1.94,2.11-4.09c0-1.9-.35-2.92-.79-3.45a1.76,1.76,0,0,0-1.32-.55C181.93,51.63,181.35,53,181.35,55.63Z"/>
<path class="cls-2" d="M190.61,59.26a5.42,5.42,0,0,1-1-3.64,5.06,5.06,0,0,1,1.11-3.7,3,3,0,0,1,4,0,5,5,0,0,1,1.13,3.7,5.36,5.36,0,0,1-1,3.64,3,3,0,0,1-4.29,0Zm0-3.63c0,1.92.28,4.09,2.1,4.09s2.11-1.94,2.11-4.09c0-1.9-.34-2.92-.79-3.45a1.73,1.73,0,0,0-1.32-.55C191.22,51.63,190.63,53,190.63,55.63Z"/>
<path class="cls-2" d="M209.76,54.89a3.68,3.68,0,0,1-3,1.7,4.55,4.55,0,0,1-2.58-.84,4.42,4.42,0,0,0-2.45-.85,3.49,3.49,0,0,0-2.59,1.23L199,56a3.68,3.68,0,0,1,3-1.7,4.55,4.55,0,0,1,2.58.84A4.42,4.42,0,0,0,207,56a3.49,3.49,0,0,0,2.59-1.23Z"/>
<path class="cls-2" d="M215.61,53.13c0-.49-.08-.71-.3-.71a2.93,2.93,0,0,0-.83.24l-.1-.36a10.18,10.18,0,0,0,2.05-1l.13.07v7.33c0,.88.08,1,1.14,1V60h-3.29v-.38c1.12,0,1.2-.08,1.2-1Z"/>
<path class="cls-2" d="M226.14,55.26a3,3,0,0,1,2.1,2.45c0,1.26-.91,2.47-3,2.47-1.6,0-2.94-.83-2.94-2.42,0-.72.44-1.65,2-2.26v0a2.48,2.48,0,0,1-1.72-2.26c0-.94.76-2,2.69-2s2.69,1,2.69,2.07-.71,1.59-1.78,2Zm1.06,2.64a1.81,1.81,0,0,0-.72-1.31,5.14,5.14,0,0,0-1.63-.82,2.2,2.2,0,0,0-1.64,2,1.86,1.86,0,0,0,2,1.94A1.79,1.79,0,0,0,227.2,57.9Zm-3.75-4.8c0,1.07,1,1.53,2,1.9.84-.34,1.52-.78,1.52-1.78,0-.62-.31-1.58-1.78-1.58C224,51.64,223.45,52.32,223.45,53.1Z"/>
<path class="cls-2" d="M232.78,54.51a.62.62,0,1,1-.61-.65A.63.63,0,0,1,232.78,54.51Zm0,5a.61.61,0,1,1-.61-.64A.62.62,0,0,1,232.79,59.48Z"/>
<path class="cls-2" d="M236.94,59.26a5.42,5.42,0,0,1-1-3.64,5,5,0,0,1,1.12-3.7,3,3,0,0,1,4,0,5,5,0,0,1,1.13,3.7,5.42,5.42,0,0,1-1,3.64,2.8,2.8,0,0,1-2.16.92A2.74,2.74,0,0,1,236.94,59.26Zm0-3.63c0,1.92.27,4.09,2.1,4.09s2.11-1.94,2.11-4.09c0-1.9-.35-2.92-.8-3.45a1.73,1.73,0,0,0-1.31-.55C237.55,51.63,237,53,237,55.63Z"/>
<path class="cls-2" d="M246.23,59.26a5.42,5.42,0,0,1-1-3.64,5.06,5.06,0,0,1,1.11-3.7,3,3,0,0,1,4,0,5,5,0,0,1,1.13,3.7,5.36,5.36,0,0,1-1,3.64,3,3,0,0,1-4.29,0Zm0-3.63c0,1.92.28,4.09,2.1,4.09s2.11-1.94,2.11-4.09c0-1.9-.34-2.92-.79-3.45a1.73,1.73,0,0,0-1.32-.55C246.84,51.63,246.25,53,246.25,55.63Z"/>
</g>
<g id="icons">
	<path class="cls-2" d="M80.76,1.13c7.27,0,9.86,8.25,9.86,15.77,0,7.13-2.59,15.82-9.91,15.82s-10-8-10-15.77c0-7.13,2.69-15.82,10-15.82Zm-.15,1.61c-4.39,0-5.56,7.33-5.56,14.11s1.41,14.21,5.66,14.21,5.57-7.32,5.57-14.16S85.06,2.74,80.66,2.74Z"/>
<path class="cls-2" d="M96.7,32.14V30.82c4.44-.34,4.69-.73,4.69-4.25V7.77c0-2.54-.2-2.78-2.35-2.88l-2.34-.1V3.67a42.67,42.67,0,0,0,8.69-2.54V26.57c0,3.52.29,3.91,4.74,4.25v1.32Z"/>
<path class="cls-2" d="M136.65,25.74c-.63,2.05-1.12,4.2-1.71,6.4H116.68V31c2.74-2.68,5.47-5.47,7.91-8.3,3-3.61,6.11-7.61,6.11-11.81s-2.15-6.5-5.76-6.5c-3.33,0-5.38,2.64-6.65,4.54l-1.07-1L120,4a8.89,8.89,0,0,1,6.6-2.88,8,8,0,0,1,8.2,8.25c0,4.25-2,7.13-6.45,11.92l-6.93,7.27h9.13c2.64,0,3.27-.19,4.74-3.27Z"/>
<path class="cls-2" d="M152,1.13c7.28,0,9.87,8.25,9.87,15.77,0,7.13-2.59,15.82-9.91,15.82s-10-8-10-15.77c0-7.13,2.68-15.82,10-15.82Zm-.14,1.61c-4.4,0-5.57,7.33-5.57,14.11s1.42,14.21,5.67,14.21,5.56-7.32,5.56-14.16-1.22-14.16-5.61-14.16Z"/>
<path class="cls-2" d="M179.92,22.47H168.78l.69-2.69h11.18Z"/>
<path class="cls-2" d="M187,32.14V30.82c4.45-.34,4.69-.73,4.69-4.25V7.77c0-2.54-.19-2.78-2.34-2.88L187,4.79V3.67a42.77,42.77,0,0,0,8.7-2.54V26.57c0,3.52.29,3.91,4.73,4.25v1.32Z"/>
<path class="cls-2" d="M218.91,13.78c4.3.83,6.79,3.85,6.79,7.42,0,7.91-9.28,11.52-12.8,11.52A8.16,8.16,0,0,1,208,31.06a1.87,1.87,0,0,1-.78-1.76,2.76,2.76,0,0,1,1.12-1.61.85.85,0,0,1,1.18,0,9,9,0,0,0,6.05,2.49c3.47,0,5.91-2.58,5.91-7.42a6,6,0,0,0-6.2-6.3,11.09,11.09,0,0,0-3.13.54l-.34-1.42c4.49-1.41,7.81-3.32,7.81-6.93A4.31,4.31,0,0,0,215,4.06c-2.68,0-4.63,2.05-5.85,3.86l-1-1,2.15-3.07a8.43,8.43,0,0,1,6.15-2.74h.05c4.39,0,7.27,2.74,7.27,6.45A4.73,4.73,0,0,1,222.23,11a21.72,21.72,0,0,1-3.32,2.64Z"/>
<path class="cls-2" d="M244.14,22.47H233l.68-2.69h11.18Z"/>
<path class="cls-2" d="M260.1,13.78a7.65,7.65,0,0,1,3.08-.83A8.66,8.66,0,0,1,272,22c0,5.81-4.15,10.74-10,10.74-5.71,0-10-4.68-10-12.2A18.94,18.94,0,0,1,264.55,2.4,41.68,41.68,0,0,1,270.8.84l.34,1.56a22.87,22.87,0,0,0-5.32,1.71,15.77,15.77,0,0,0-9,11.28Zm1.13,1.9a9.92,9.92,0,0,0-4.64,1.37,13.65,13.65,0,0,0-.3,3.37c0,5.86,2.49,10.64,6.5,10.64,3.81,0,5-4.1,5-7.32,0-4-2-8.06-6.5-8.06Z"/>
<path class="cls-2" d="M296.57,2.3c-4.59,9.91-9.13,19.88-13.82,29.93l-3.62.49-.34-.53a260.18,260.18,0,0,0,14.5-26.91H282.75c-3.23,0-3.52.44-4.69,3.66h-1.42c.44-2.68.69-5.12.88-7.22h18.66Z"/>
<path class="cls-2" d="M306.91,13.78A7.61,7.61,0,0,1,310,13c5.23,0,8.79,4,8.79,9,0,5.81-4.15,10.74-10,10.74-5.71,0-10-4.68-10-12.2A18.94,18.94,0,0,1,311.35,2.4,42,42,0,0,1,317.6.84l.34,1.56a23,23,0,0,0-5.32,1.71,15.77,15.77,0,0,0-9,11.28Zm1.12,1.9a9.92,9.92,0,0,0-4.64,1.37,14.2,14.2,0,0,0-.29,3.37c0,5.86,2.49,10.64,6.49,10.64,3.81,0,5-4.1,5-7.32,0-4-2.05-8.06-6.49-8.06Z"/>
<path class="cls-2" d="M343.37,2.3c-4.59,9.91-9.13,19.88-13.82,29.93l-3.61.49-.34-.53A264.06,264.06,0,0,0,340.1,5.28H329.55c-3.22,0-3.52.44-4.69,3.66h-1.41c.44-2.68.68-5.12.88-7.22H343Z"/>
<g class="cls-3">
	<rect class="cls-2" width="52" height="34"/>
</g>
</g>
</svg>