<?xml version="1.0" encoding="utf-8"?>
<!-- Generator: Adobe Illustrator 22.1.0, SVG Export Plug-In . SVG Version: 6.00 Build 0)  -->
<svg version="1.1" id="レイヤー_1" xmlns="http://www.w3.org/2000/svg" xmlns:xlink="http://www.w3.org/1999/xlink" x="0px"
	 y="0px" viewBox="0 0 306 80" style="enable-background:new 0 0 306 80;" xml:space="preserve">
<style type="text/css">
	.st0{fill:#333333;}
	.st1{fill:none;stroke:#FFFFFF;stroke-width:1.6;stroke-miterlimit:10;}
</style>
<title>tel</title>
<g id="text_outline_">
	<path class="st0" d="M86.6,66.2c-3.7,2.1-5,6.7-3,10.4c0.7,1.2,1.7,2.3,3,3v0.2h-5.1V65.9h5.1V66.2z"/>
	<path class="st0" d="M101.8,72.9c0.2-0.6,0.4-1.1,0.5-1.7H91.9c0,1.4-0.7,1.9-1.4,1.9c-0.4,0-0.6-0.2-0.6-0.4
		c0-0.3,0.2-0.5,0.4-0.6c0.7-0.4,1.1-1.1,1.1-1.9h0.3c0.1,0.2,0.1,0.5,0.1,0.7h7.4c0.6-1,1.2-2,1.6-3.1l1.6,0.6
		c-0.1,0.1-0.2,0.2-0.3,0.2h-0.2c-0.6,0.9-1.4,1.7-2.2,2.4h2.6l0.6-0.7l1.2,1.1c-0.2,0.1-0.4,0.2-0.6,0.2c-0.4,0.6-0.9,1.1-1.5,1.5
		L101.8,72.9z M100.7,72.5l1.1,1.1c-0.2,0.1-0.4,0.2-0.7,0.2c-0.9,1.3-2,2.4-3.3,3.3c1.8,0.8,3.8,1.4,5.7,1.7v0.2
		c-0.5,0.1-0.9,0.4-1,0.9c-2-0.4-3.9-1.2-5.7-2.2c-2,1.1-4.3,1.9-6.5,2.2l-0.1-0.3c2.1-0.5,4.1-1.3,6-2.4c-1.3-0.9-2.4-2.2-3.1-3.6
		H92l-0.1-0.4h8.1L100.7,72.5z M90.9,67.6c3.5-0.3,6.9-0.9,10.2-1.7l1.1,1.1c-0.1,0.1-0.2,0.1-0.3,0.1c-0.2,0-0.4-0.1-0.5-0.1
		c-3.5,0.6-7,0.9-10.5,1L90.9,67.6z M92.3,68.1c1.5,0.6,2,1.4,2,1.9c0,0.6-0.2,0.7-0.5,0.7c-0.2,0-0.3-0.1-0.4-0.2
		c-0.2-0.8-0.6-1.6-1.2-2.2L92.3,68.1z M93.5,73.5c0.9,1.3,2.1,2.4,3.5,3.1c1.2-0.8,2.2-1.9,2.9-3.1H93.5z M95.7,67.8
		c1.4,0.7,1.8,1.5,1.8,2.1s-0.3,0.7-0.6,0.7c-0.2,0-0.3-0.1-0.4-0.2c-0.1-0.9-0.4-1.8-0.9-2.5L95.7,67.8z"/>
	<path class="st0" d="M107.2,73.7c1.6-2.4,2.8-5,3.5-7.8l1.6,0.5c0,0.2-0.2,0.3-0.6,0.3c-0.4,1.1-0.9,2.2-1.5,3.3l0.6,0.2
		c0,0.1-0.2,0.2-0.4,0.3v9c-0.2,0.2-0.5,0.3-0.8,0.3h-0.2v-8.4c-0.6,0.9-1.2,1.7-2,2.5L107.2,73.7z M120,68.9l1.3,1
		c-0.1,0.2-0.3,0.3-0.7,0.3h-2v8c0,0.8-0.2,1.4-1.8,1.6c0-0.9-0.7-1-2.1-1v-0.2h2.5c0.3,0,0.4-0.1,0.4-0.4v-8h-5.6l-0.1-0.4h5.7
		v-3.9l1.7,0.1c0,0.2-0.1,0.3-0.7,0.4v3.4h0.8L120,68.9z M113.1,71.9c1.9,1.1,2.6,2.3,2.6,3.1c0,0.5-0.3,0.9-0.6,0.9
		c-0.2,0-0.4-0.1-0.5-0.2c-0.2-1.4-0.8-2.6-1.6-3.7L113.1,71.9z"/>
	<path class="st0" d="M128.8,66.8l1.3,1c-0.2,0.2-0.4,0.3-0.6,0.3v8.7c0,0-0.3,0.3-1,0.3V76h-2.3v1.5c-0.2,0.2-0.5,0.4-0.8,0.3h-0.1
		V66.9l1.1,0.5h2L128.8,66.8z M128.5,67.7h-2.3v3.7h2.3V67.7z M126.2,75.6h2.3v-3.8h-2.3V75.6z M137.5,70.2l1.4,0.9
		c-0.1,0.2-0.3,0.3-0.7,0.3h-8.4l-0.1-0.4h3.7v-2.5h-3l-0.1-0.4h3.1v-2.3l1.7,0.1c0,0.2-0.2,0.3-0.7,0.4v1.7h1.6l0.7-0.9l1.3,0.9
		c-0.1,0.2-0.3,0.3-0.7,0.3h-2.9V71h2.5L137.5,70.2z M136.7,73.8l0.7-0.9l1.2,0.9c-0.1,0.2-0.3,0.3-0.7,0.3h-1.8v4.2
		c0,0.8-0.2,1.4-1.6,1.5c0-0.8-0.6-0.9-1.7-1v-0.3h2c0.3,0,0.4,0,0.4-0.3v-4.2h-5.5l-0.1-0.4h5.5v-1.8l1.6,0.1
		c0,0.2-0.1,0.3-0.6,0.4v1.4L136.7,73.8z M131.1,74.8c1.5,0.7,2,1.6,2,2.2c0,0.6-0.3,0.7-0.6,0.7c-0.2,0-0.4-0.1-0.5-0.2
		c-0.1-1-0.5-1.9-1.1-2.7L131.1,74.8z"/>
	<path class="st0" d="M147.1,71.3H144v8.2c0,0-0.1,0.4-1,0.4V66.4l1,0.5h2.9l0.4-0.6l1.2,0.9c-0.2,0.1-0.3,0.2-0.6,0.3v4.3
		c-0.3,0.2-0.6,0.3-0.9,0.3V71.3z M147.1,67.2H144v1.6h3.2V67.2z M144,70.9h3.2v-1.7H144V70.9z M152.4,73.4
		c-0.2,0.1-0.4,0.2-0.6,0.3v4.6c-0.2,0.2-0.6,0.4-0.9,0.3v-0.7h-3.8v0.5c0,0-0.1,0.3-0.9,0.3v-6.1l1,0.4h3.5l0.4-0.5L152.4,73.4z
		 M150.9,73.4h-3.8v1.8h3.7L150.9,73.4z M147.2,77.5h3.7v-1.9h-3.8L147.2,77.5z M154.5,66.3l1.3,1c-0.2,0.2-0.4,0.3-0.7,0.3v10.9
		c0,0.8-0.2,1.4-1.6,1.4c0-0.8-0.6-0.9-1.7-1v-0.2h2c0.3,0,0.3,0,0.3-0.2v-7.1h-3.3v0.5c0,0-0.1,0.3-1,0.3v-5.6l1,0.4h3L154.5,66.3z
		 M154.2,67.3h-3.3v1.6h3.3V67.3z M150.9,70.9h3.3v-1.7h-3.3V70.9z"/>
	<path class="st0" d="M159.4,79.5c3.7-2,5-6.7,3-10.4c-0.7-1.3-1.7-2.3-3-3v-0.2h5.2v13.9h-5.2V79.5z"/>
	<path class="st0" d="M182.4,73.1c-0.6,1-1.6,1.5-2.7,1.5c-1.8,0.1-3.3-1.2-3.4-3c0-0.1,0-0.3,0-0.4c-0.1-1.9,1.3-3.5,3.2-3.7
		c0.2,0,0.3,0,0.5,0c2,0,3.8,1.5,3.8,5.3c0,3-1,6-4,6c-2.2,0-3.1-1.3-3.1-2c0-0.4,0.2-0.6,0.5-0.6c0.3,0,0.5,0.2,0.8,0.8
		c0.3,0.8,1,1.4,1.9,1.3C182.3,78.2,182.4,74.1,182.4,73.1L182.4,73.1z M179.9,74c1.3,0,2.4-1.1,2.4-2.5c0,0,0,0,0,0
		c0-1.6-0.8-3.4-2.4-3.4s-2.4,1.4-2.4,3C177.5,71.9,177.8,74,179.9,74L179.9,74z"/>
	<path class="st0" d="M189.4,71.7c0,0.4-0.3,0.8-0.8,0.8c0,0,0,0,0,0c-0.4,0-0.8-0.4-0.8-0.8c0,0,0,0,0,0c0-0.4,0.3-0.8,0.7-0.8
		c0,0,0,0,0,0C189,70.9,189.4,71.3,189.4,71.7C189.4,71.7,189.4,71.7,189.4,71.7z M189.4,78c0,0.4-0.3,0.8-0.8,0.8
		c-0.4,0-0.8-0.3-0.8-0.8c0,0,0,0,0,0c0-0.4,0.3-0.8,0.8-0.8C189,77.2,189.4,77.5,189.4,78C189.4,78,189.4,78,189.4,78z"/>
	<path class="st0" d="M194.6,77.6c-0.9-1.3-1.3-2.9-1.1-4.5c-0.2-1.7,0.3-3.3,1.4-4.6c0.7-0.6,1.6-0.9,2.5-0.9
		c0.9,0,1.8,0.3,2.5,0.9c1.1,1.3,1.5,3,1.4,4.6c0.1,1.6-0.3,3.2-1.2,4.6c-0.7,0.8-1.7,1.2-2.7,1.2C196.2,78.8,195.3,78.4,194.6,77.6
		z M194.6,73.1c0,2.4,0.3,5.1,2.6,5.1s2.7-2.4,2.7-5.1c0.2-1.5-0.2-3-1-4.3c-0.4-0.5-1-0.7-1.6-0.7
		C195.4,68.1,194.6,69.8,194.6,73.1L194.6,73.1z"/>
	<path class="st0" d="M206.2,77.6c-0.9-1.3-1.4-2.9-1.2-4.6c-0.2-1.7,0.3-3.3,1.4-4.6c1.4-1.2,3.6-1.2,5,0c1.1,1.3,1.6,3,1.4,4.6
		c0.1,1.6-0.3,3.2-1.2,4.6c-0.7,0.8-1.7,1.2-2.7,1.2C207.8,78.8,206.9,78.4,206.2,77.6z M206.2,73.1c0,2.4,0.3,5.1,2.6,5.1
		s2.7-2.4,2.7-5.1c0.2-1.5-0.2-3-1-4.3c-0.4-0.5-1-0.7-1.6-0.7C207,68.1,206.2,69.8,206.2,73.1L206.2,73.1z"/>
	<path class="st0" d="M230.1,72.2c-0.8,1.3-2.2,2.1-3.7,2.1c-1.2,0-2.3-0.4-3.2-1c-0.9-0.7-2-1-3.1-1.1c-1.2,0-2.4,0.6-3.2,1.5
		l-0.2-0.2c0.8-1.3,2.2-2.1,3.7-2.1c1.2,0,2.3,0.4,3.2,1c0.9,0.7,2,1,3.1,1.1c1.2,0,2.4-0.6,3.2-1.5L230.1,72.2z"/>
	<path class="st0" d="M237.4,70c0-0.6-0.1-0.9-0.4-0.9c-0.4,0-0.7,0.1-1,0.3l-0.1-0.4c0.9-0.3,1.7-0.8,2.5-1.3l0.2,0.1v9.2
		c0,1.1,0.1,1.2,1.4,1.2v0.4h-4.1v-0.5c1.4,0,1.5-0.1,1.5-1.2L237.4,70z"/>
	<path class="st0" d="M250.6,72.6c1.4,0.4,2.4,1.6,2.6,3.1c0,1.6-1.1,3.1-3.8,3.1c-2,0-3.7-1-3.7-3c0-0.9,0.5-2,2.5-2.8l0,0
		c-1.2-0.4-2.1-1.5-2.1-2.8c0-1.2,0.9-2.6,3.4-2.6c2.4,0,3.4,1.2,3.4,2.6S251.9,72.1,250.6,72.6L250.6,72.6z M252,75.9
		c-0.1-0.6-0.4-1.2-0.9-1.6c-0.6-0.5-1.3-0.8-2-1c-1.2,0.3-2,1.3-2,2.5c-0.1,1.3,0.9,2.4,2.2,2.4c0.1,0,0.2,0,0.3,0
		c1.2,0.1,2.3-0.8,2.4-2C251.9,76.1,251.9,76,252,75.9L252,75.9z M247.3,69.9c0,1.4,1.2,1.9,2.5,2.4c1-0.4,1.9-1,1.9-2.2
		c0-0.8-0.4-2-2.2-2C248,68.1,247.2,69,247.3,69.9L247.3,69.9z"/>
	<path class="st0" d="M258.9,71.7c0,0.4-0.3,0.8-0.7,0.8c0,0,0,0,0,0c-0.4,0-0.8-0.4-0.8-0.8c0,0,0,0,0,0c0-0.4,0.3-0.8,0.8-0.8
		C258.5,71,258.9,71.3,258.9,71.7C258.9,71.7,258.9,71.7,258.9,71.7z M258.9,78c0,0.4-0.3,0.8-0.8,0.8c-0.4,0-0.8-0.3-0.8-0.8
		c0,0,0,0,0,0c0-0.4,0.3-0.8,0.8-0.8C258.5,77.2,258.9,77.5,258.9,78C258.9,78,258.9,78,258.9,78z"/>
	<path class="st0" d="M264.1,77.6c-0.9-1.3-1.4-2.9-1.2-4.6c-0.2-1.7,0.3-3.3,1.4-4.6c1.4-1.2,3.6-1.2,5,0c1.1,1.3,1.6,3,1.4,4.6
		c0.1,1.6-0.3,3.2-1.2,4.6c-0.7,0.8-1.7,1.2-2.7,1.2C265.7,78.8,264.7,78.4,264.1,77.6z M264.1,73.1c0,2.4,0.3,5.1,2.6,5.1
		c2.3,0,2.7-2.4,2.7-5.1c0.2-1.5-0.2-3-1-4.3c-0.4-0.5-1-0.7-1.6-0.7C264.9,68.1,264.1,69.8,264.1,73.1L264.1,73.1z"/>
	<path class="st0" d="M275.7,77.6c-0.9-1.3-1.4-2.9-1.2-4.6c-0.2-1.7,0.3-3.3,1.4-4.6c1.4-1.2,3.6-1.2,5,0c1.1,1.3,1.5,3,1.4,4.6
		c0.1,1.6-0.3,3.2-1.2,4.6c-0.7,0.8-1.7,1.2-2.7,1.2C277.3,78.8,276.3,78.4,275.7,77.6z M275.7,73.1c0,2.4,0.4,5.1,2.6,5.1
		c2.3,0,2.7-2.4,2.7-5.1c0.2-1.5-0.2-3-1-4.3c-0.4-0.5-1-0.7-1.6-0.7C276.4,68.1,275.7,69.8,275.7,73.1L275.7,73.1z"/>
	<path class="st0" d="M71.9,24.8c7.1,0,9.6,8,9.6,15.3c0,6.9-2.5,15.3-9.6,15.3s-9.7-7.8-9.7-15.3C62.1,33.2,64.7,24.8,71.9,24.8
		L71.9,24.8z M71.7,26.3c-4.3,0-5.4,7.1-5.4,13.7s1.4,13.8,5.5,13.8s5.4-7.1,5.4-13.7S76,26.3,71.7,26.3L71.7,26.3z"/>
	<path class="st0" d="M84.6,54.8v-1.3c4.3-0.3,4.6-0.7,4.6-4.1V31.2c0-2.5-0.2-2.7-2.3-2.8l-2.3-0.1v-1.1c2.9-0.5,5.7-1.3,8.4-2.5
		v24.6c0,3.4,0.3,3.8,4.6,4.1v1.3H84.6z"/>
	<path class="st0" d="M121.1,48.6c-0.6,2-1.1,4.1-1.7,6.2h-17.7v-1.1c2.7-2.6,5.3-5.3,7.7-8c2.9-3.5,5.9-7.4,5.9-11.4
		s-2.1-6.3-5.6-6.3c-3.2,0-5.2,2.5-6.4,4.4l-1-1l2.7-3.8c1.6-1.8,4-2.8,6.4-2.8c4.3-0.1,7.9,3.3,8,7.6c0,0.1,0,0.3,0,0.4
		c0,4.1-1.9,6.9-6.3,11.5l-6.7,7h8.8c2.6,0,3.2-0.2,4.6-3.2L121.1,48.6z"/>
	<path class="st0" d="M134.4,24.8c7.1,0,9.6,8,9.6,15.3c0,6.9-2.5,15.3-9.6,15.3c-7.1,0-9.7-7.8-9.7-15.3
		C124.7,33.2,127.3,24.8,134.4,24.8L134.4,24.8z M134.3,26.3c-4.3,0-5.4,7.1-5.4,13.7s1.4,13.8,5.5,13.8c4.3,0,5.4-7.1,5.4-13.7
		S138.6,26.3,134.3,26.3L134.3,26.3z"/>
	<path class="st0" d="M160.2,41.4h-10.8l0.7-2.6h10.9L160.2,41.4z"/>
	<path class="st0" d="M163.1,54.8v-1.3c4.3-0.3,4.6-0.7,4.6-4.1V31.2c0-2.5-0.2-2.7-2.3-2.8l-2.3-0.1v-1.1c2.9-0.5,5.7-1.3,8.4-2.5
		v24.6c0,3.4,0.3,3.8,4.6,4.1v1.3H163.1z"/>
	<path class="st0" d="M190.4,37c4.2,0.8,6.6,3.7,6.6,7.2c0,7.7-9,11.2-12.4,11.2c-1.7,0-3.4-0.6-4.7-1.6c-0.5-0.4-0.8-1-0.8-1.7
		c0.2-0.6,0.5-1.2,1.1-1.6c0.3-0.3,0.8-0.3,1.1,0c1.6,1.5,3.7,2.4,5.9,2.4c3.4,0,5.7-2.5,5.7-7.2c0.2-3.2-2.3-5.9-5.5-6.1
		c-0.2,0-0.3,0-0.5,0c-1,0-2,0.2-3,0.5l-0.3-1.4c4.4-1.4,7.6-3.2,7.6-6.7c0.2-2.3-1.6-4.3-3.9-4.4c-0.2,0-0.4,0-0.6,0
		c-2.6,0-4.5,2-5.7,3.7l-1-1l2.1-3c1.5-1.7,3.7-2.6,6-2.6l0,0c4.3,0,7.1,2.6,7.1,6.2c0,1.3-0.5,2.5-1.5,3.4c-1,1-2.1,1.8-3.2,2.6
		L190.4,37z"/>
	<path class="st0" d="M213.1,41.4h-10.8l0.7-2.6h10.9L213.1,41.4z"/>
	<path class="st0" d="M226.2,37c0.9-0.5,2-0.7,3-0.8c4.6-0.1,8.5,3.6,8.5,8.2c0,0.2,0,0.3,0,0.5c0,5.6-4,10.4-9.7,10.4
		s-9.8-4.6-9.8-11.8c-0.1-7.9,4.8-14.9,12.3-17.5c2-0.7,4-1.2,6.1-1.5l0.3,1.5c-1.8,0.3-3.5,0.9-5.2,1.7c-4.5,2-7.7,6.1-8.7,10.9
		L226.2,37z M227.2,38.9c-1.6,0.1-3.1,0.5-4.5,1.3c-0.2,1.1-0.3,2.2-0.3,3.3c0,5.7,2.4,10.3,6.3,10.3c3.7,0,4.8-4,4.8-7.1
		C233.6,42.7,231.6,38.9,227.2,38.9L227.2,38.9z"/>
	<path class="st0" d="M260.8,25.9c-4.5,9.6-8.9,19.2-13.4,29l-3.5,0.5l-0.3-0.5c5.2-8.4,9.9-17.1,14.1-26.1h-10.2
		c-3.1,0-3.4,0.4-4.6,3.5h-1.4c0.4-2.6,0.7-5,0.9-7h18.1L260.8,25.9z"/>
	<path class="st0" d="M270.8,37c0.9-0.5,2-0.7,3-0.8c4.6-0.1,8.4,3.7,8.5,8.3c0,0.1,0,0.3,0,0.4c0,5.6-4,10.4-9.7,10.4
		s-9.7-4.5-9.7-11.8c-0.1-7.9,4.9-14.9,12.3-17.5c2-0.7,4-1.2,6.1-1.5l0.3,1.5c-1.8,0.3-3.5,0.9-5.2,1.7c-4.5,2-7.8,6.1-8.7,10.9
		L270.8,37z M271.8,38.9c-1.6,0.1-3.1,0.5-4.5,1.3c-0.2,1.1-0.3,2.2-0.3,3.3c0,5.7,2.4,10.3,6.3,10.3c3.7,0,4.8-4,4.8-7.1
		C278.2,42.8,276.2,38.9,271.8,38.9L271.8,38.9z"/>
	<path class="st0" d="M305.4,25.9c-4.5,9.6-8.9,19.2-13.4,29l-3.5,0.5l-0.3-0.5c5.2-8.4,9.9-17.1,14.1-26.1H292
		c-3.1,0-3.4,0.4-4.5,3.5h-1.4c0.4-2.6,0.7-5,0.9-7H305L305.4,25.9z"/>
	<path class="st0" d="M134.5,2c0.6,0,0.9,0.2,0.9,0.4c0,0.4-1.6,0.8-2.4,1c0,0.6-0.1,2-0.1,2.5c1-0.6,2.1-0.9,3.2-1
		c1.6,0,2.6,0.8,2.6,2.3c0,1.3-1.1,2.3-2.4,2.3c0,0-0.1,0-0.1,0c-1.3,0-1.9-0.6-1.9-1.4c0-0.5,0.1-0.9,0.3-1.3h0.2
		c-0.1,0.3-0.1,0.5-0.1,0.8c0,0.9,0.5,1.3,1.5,1.3c0.9,0.1,1.7-0.7,1.8-1.6c0-0.1,0-0.1,0-0.2c0.1-0.9-0.6-1.8-1.6-1.8
		c-0.1,0-0.3,0-0.4,0c-1.1,0.1-2.2,0.4-3.1,1.1c0,1.8,0.2,2.1,0.2,2.8c0,0.5-0.2,0.8-0.6,0.8s-0.2-0.4-0.4-0.8
		c-0.3-0.5-0.7-0.9-1.2-1.3c-0.2,0.2-0.4,0.4-0.6,0.4c-0.3,0-0.6-0.3-0.6-0.6c0-0.3,0.1-0.4,0.3-0.4s0.2,0,0.4,0
		c0.7-0.2,1.4-0.6,2-1.1c0-0.9,0.1-2,0.1-2.7c-0.4,0.1-0.7,0.1-1.1,0.1c-0.6,0.1-1.2-0.3-1.3-0.8l0.1-0.2c0.2,0.3,0.5,0.5,0.9,0.5
		c0.5,0,1,0,1.5-0.1c0-0.2,0-1,0-1.2c0-0.6-0.2-0.8-0.8-0.7V1.1c0.1-0.2,0.4-0.4,0.7-0.4c0.5,0,1,0.3,1,0.7c0,0.1-0.1,0.3-0.2,0.4
		c-0.1,0.3-0.1,0.7-0.1,1C133.8,2.7,134.4,2.4,134.5,2L134.5,2z M132.4,8.3c0-0.5,0-1.1,0-1.6c-0.5,0.3-0.9,0.6-1.4,1
		c0.4,0.3,0.8,0.6,1.2,0.8C132.3,8.6,132.4,8.5,132.4,8.3z M135.9,3c0.5-0.4,1.1-0.7,1.8-0.7c0.7,0,1.3,0.4,1.4,1.1
		c0,0.2-0.1,0.4-0.3,0.4s-0.3-0.1-0.5-0.1c-0.4,0.1-0.8,0.2-1.2,0.4l-0.1-0.2l1-0.5c0,0,0.1-0.1,0.1-0.1s-0.4-0.5-0.9-0.5
		c-0.4,0-0.8,0.1-1.2,0.3L135.9,3z"/>
	<path class="st0" d="M151.5,1.8l0.8,0.8c-0.1,0.1-0.3,0.1-0.4,0.1c-0.3,0.4-0.6,0.7-0.9,1l-0.2-0.1c0.1-0.4,0.2-0.7,0.3-1.1h-3.8
		v2.6c0,0.1-0.2,0.2-0.6,0.2h-0.1V2.5h-3.5c0,0.7-0.3,1.2-0.9,1.2c-0.3,0-0.4-0.1-0.4-0.3c0-0.2,0.2-0.4,0.3-0.4
		c0.4-0.2,0.7-0.7,0.6-1.1h0.2c0.1,0.1,0.1,0.3,0.1,0.4h3.5v-1h-3.6L143,1h6.7l0.5-0.6l1,0.6c-0.1,0.2-0.2,0.3-0.5,0.3h-3.3v1h3.7
		L151.5,1.8z M145.5,4.1l0.7,0.5c-0.1,0.2-0.2,0.2-0.5,0.2h-2.5l-0.1-0.3h2L145.5,4.1z M145.4,3l0.7,0.5c-0.1,0.2-0.2,0.2-0.5,0.2
		h-2.3l-0.1-0.3h1.7L145.4,3z M151.8,8.5v1c0.3,0.1,0.4,0.2,0.4,0.3c0,0.3-0.3,0.4-1.3,0.4H148c-1,0-1.3-0.1-1.3-1V8.5H144v0.4
		c0,0-0.1,0.3-0.7,0.3V5.4l0.8,0.3h5.9l0.3-0.4l0.9,0.7c-0.1,0.1-0.3,0.2-0.4,0.2v2.5c0,0-0.2,0.3-0.7,0.3V8.5h-2.7v0.7
		c0,0.4,0,0.4,0.6,0.4h2.9c0.5,0,0.5,0,0.8-1.1L151.8,8.5z M146.7,6h-2.6v1h2.6V6z M144.1,8.2h2.6v-1h-2.6V8.2z M150.1,6h-2.7v1h2.7
		V6z M147.4,8.2h2.7v-1h-2.7V8.2z M148,4.8l-0.1-0.3h2l0.4-0.5l0.8,0.5c-0.1,0.2-0.2,0.2-0.5,0.2H148z M150.1,3l0.7,0.5
		c-0.1,0.2-0.2,0.2-0.5,0.2H148l-0.1-0.3h1.8L150.1,3z"/>
	<path class="st0" d="M158.5,1.8l0.9,0.6c-0.1,0.2-0.2,0.2-0.5,0.2h-4.1l-0.1-0.3h3.3L158.5,1.8z M155.2,3.8h2.3l0.4-0.6l0.8,0.6
		c-0.1,0.2-0.2,0.3-0.5,0.3h-3L155.2,3.8z M158.8,5.3c-0.1,0.2-0.2,0.2-0.5,0.2h-3V5.2h2.3l0.4-0.6L158.8,5.3z M158.8,1
		c-0.1,0.2-0.2,0.2-0.5,0.2h-3L155.2,1h2.2l0.4-0.6L158.8,1z M157.7,6.7l0.3-0.4l0.9,0.7c-0.1,0.1-0.3,0.2-0.5,0.2v2.7
		c0,0-0.2,0.2-0.7,0.2V9.4h-1.9v0.8c0,0-0.1,0.2-0.7,0.2V6.3l0.7,0.3L157.7,6.7z M155.9,9.1h1.9V6.9h-1.9V9.1z M165.1,3.9
		c-0.1,0.2-0.2,0.2-0.5,0.2h-2.2v2.2h1.1l0.3-0.4l1,0.7c-0.1,0.1-0.3,0.2-0.5,0.2V10c-0.2,0.2-0.4,0.3-0.7,0.3V9.6h-3.2v0.6
		c0,0-0.1,0.2-0.7,0.2V6l0.7,0.3h1.2V4.2h-2.5l-0.1-0.3h2.6V1.6c-0.8,0.2-1.6,0.3-2.4,0.4l-0.1-0.2c1.6-0.4,3.1-0.9,4.5-1.6l0.9,0.7
		c-0.1,0.1-0.1,0.1-0.2,0.1c-0.1,0-0.2,0-0.3-0.1c-0.5,0.1-1.1,0.3-1.7,0.5v2.4h1.3l0.5-0.7L165.1,3.9z M163.6,6.6h-3.2v2.8h3.2V6.6
		z"/>
	<path class="st0" d="M167.9,1.9c0.1,0.4,0.4,0.6,0.8,0.6c0.3,0,0.6,0,0.9-0.1c0.9-0.2,3.5-0.6,5-0.8c0.3,0,0.5-0.1,0.7-0.3
		c0.9,0.2,1.3,0.4,1.3,0.7c0,0.2-0.2,0.2-0.5,0.2s-0.5,0-0.8,0c-1.3,0.2-2.5,1-3.2,2.1c-0.4,0.7-0.7,1.6-0.6,2.4c0,1.6,1,2,2.2,2.2
		c0.3,0,0.6,0,0.8,0.1c0.4,0.1,0.5,0.4,0.5,0.6s-0.2,0.3-0.5,0.3h-0.3c-2.7-0.3-3.4-1.2-3.4-3.1c0.2-2,1.4-3.8,3.2-4.7V2
		c-1.6,0.2-3.2,0.6-4.6,1.2c-0.1,0.1-0.3,0.2-0.5,0.2c-0.5-0.1-1-0.5-1.1-1C167.6,2.2,167.7,2.1,167.9,1.9L167.9,1.9z M174.2,4
		c1.3,0.4,1.6,1,1.6,1.3c0,0.2-0.1,0.3-0.3,0.3c-0.2,0-0.3-0.1-0.4-0.3c-0.3-0.5-0.6-0.9-1.1-1.2L174.2,4z M175.3,3.1
		c1.3,0.4,1.6,1,1.6,1.3c0,0.2-0.1,0.3-0.3,0.3c-0.2,0-0.3-0.1-0.4-0.3c-0.3-0.5-0.7-0.9-1.1-1.2L175.3,3.1z"/>
	<path class="st0" d="M184.2,9.3c3-0.4,4.2-2,4.2-3.8c0-2-0.9-3.7-3.4-3.7c-0.3,0-0.6,0-0.9,0.1c0.3,0.3,0.4,0.7,0.4,1.1
		c0,2-1.4,5.4-3.1,5.4c-0.8,0-1.3-0.9-1.3-2.3c0.1-2.6,2.2-4.7,4.8-4.6c0.1,0,0.1,0,0.2,0c2.1-0.2,4,1.3,4.2,3.4c0,0.2,0,0.4,0,0.6
		c0,2.1-1.4,3.7-4.9,4L184.2,9.3z M183.7,2c-1.8,0.5-3.1,2.2-3,4.1c0,0.9,0.3,1.6,0.7,1.6c1.3,0,2.5-3.1,2.5-5
		C183.9,2.5,183.9,2.2,183.7,2z"/>
	<path class="st0" d="M194.4,4.8c-0.6,0.6-0.9,1.3-1,2.1c0,1,0.8,1.8,2.8,1.8c0.9,0.1,1.8,0,2.6-0.4c0.7,0.1,1.1,0.3,1.1,0.6
		s-1.4,0.5-3.6,0.5c-2.8,0-3.4-1.3-3.4-2.1c0-1,0.5-2,1.3-2.6L194.4,4.8z M197.3,2.6c-0.9,0.1-2.2,0.4-2.8,0.4c-0.6,0-1-0.4-1.1-0.9
		c0-0.1,0-0.2,0.1-0.3h0.1c0.1,0.2,0.4,0.6,1.2,0.6c1,0,2.1-0.2,3.1-0.5c0.8,0.1,1.1,0.4,1.1,0.7c0,0.2-0.3,0.3-0.6,0.3
		c-1.1,0.2-2.1,0.6-3,1.2l-0.1-0.1C195.7,3.5,196.8,3,197.3,2.6L197.3,2.6z M198.8,0.6c0.9,0.4,1.5,1,1.5,1.4c0,0.2-0.1,0.4-0.3,0.4
		c0,0,0,0,0,0c-0.1,0-0.3-0.1-0.3-0.3c-0.2-0.6-0.6-1-1.1-1.4L198.8,0.6z M200.1,0c0.9,0.3,1.6,0.9,1.6,1.4c0,0.2-0.1,0.4-0.3,0.4
		c0,0,0,0,0,0c-0.1,0-0.3-0.1-0.3-0.2c-0.2-0.6-0.6-1-1.1-1.4L200.1,0z"/>
	<path class="st0" d="M207.2,2.9l0.5-0.7l0.9,0.7c-0.1,0.2-0.2,0.3-0.5,0.3h-1.3v1.5c1.3,0.5,1.7,1.1,1.7,1.5c0,0.2-0.1,0.4-0.3,0.4
		c0,0,0,0,0,0c-0.1,0-0.2-0.1-0.3-0.1c-0.2-0.6-0.6-1.2-1.1-1.7v5.4c0,0-0.1,0.3-0.7,0.3V5.1c-0.4,1-1,2-1.8,2.9l-0.2-0.1
		c0.9-1.4,1.4-3,1.7-4.7h-1.6V2.9h1.9V0.3l1.2,0.1c0,0.2-0.1,0.2-0.5,0.3v2.2H207.2z M213.2,0.6l1,0.7c-0.1,0.1-0.3,0.2-0.5,0.2v8.4
		c0,0-0.2,0.3-0.7,0.3V9.4h-3.2V10c0,0-0.1,0.3-0.7,0.3V0.7l0.8,0.4h3L213.2,0.6z M213,1.3h-3.2v2.4h3.2V1.3z M213,3.9h-3.2v2.4h3.2
		V3.9z M209.8,9.1h3.2V6.6h-3.2V9.1z"/>
	<path class="st0" d="M220.4,1.8l0.9,0.6c-0.1,0.2-0.2,0.2-0.5,0.2h-3.9l-0.1-0.3h3.1L220.4,1.8z M220.6,1c-0.1,0.2-0.2,0.2-0.5,0.2
		h-2.8L217.3,1h2l0.5-0.6L220.6,1z M217.4,3.8h2.1l0.4-0.6l0.8,0.6c-0.1,0.2-0.3,0.3-0.5,0.3h-2.8L217.4,3.8z M220.7,5.3
		c-0.1,0.2-0.2,0.2-0.5,0.2h-2.8l-0.1-0.3h2.1l0.4-0.5L220.7,5.3z M220,6.3l0.9,0.7c-0.1,0.1-0.3,0.2-0.5,0.2v2.7
		c0,0-0.2,0.2-0.7,0.2V9.4H218v0.8c0,0-0.1,0.2-0.7,0.2V6.3l0.7,0.3h1.6L220,6.3z M218,9.1h1.7V6.9H218V9.1z M220.5,10.3
		c3.1-1.3,3.1-3.1,3.1-5.4l1.1,0.1c0,0.1-0.1,0.2-0.4,0.2c0.2,2.3,0.7,3.8,2.9,4.6v0.1c-0.3,0-0.6,0.3-0.6,0.6
		c-1.5-0.8-2.1-2.1-2.3-3.9l0,0c-0.2,1.6-0.8,2.9-3.6,3.8L220.5,10.3z M224.8,0.4c0,0.1-0.1,0.2-0.4,0.2c0,0.8-0.1,1.6-0.3,2.4
		c2.1,0.6,2.8,1.5,2.8,2c0,0.2-0.1,0.3-0.3,0.3c0,0,0,0,0,0c-0.1,0-0.2,0-0.3-0.1c-0.6-0.8-1.4-1.5-2.3-2.1
		c-0.6,1.1-1.7,1.9-2.9,2.2l-0.1-0.2c2.7-1.2,2.7-2.8,2.7-4.9L224.8,0.4z M222.3,5.8c0.1,0.3,0.1,0.5,0.1,0.8c0,0.9-0.5,1.5-1,1.5
		c-0.2,0-0.3-0.1-0.3-0.3c0,0,0,0,0,0c0-0.2,0.1-0.3,0.3-0.4c0.5-0.3,0.8-0.9,0.8-1.6L222.3,5.8z M222.5,1.3
		c0.1,0.2,0.1,0.5,0.1,0.7c0,0.7-0.4,1.3-0.9,1.3c-0.2,0-0.3-0.2-0.3-0.3c0-0.2,0.1-0.3,0.3-0.4c0.4-0.3,0.7-0.8,0.6-1.3L222.5,1.3z
		 M225,3c0.4-0.6,0.7-1.2,1-1.9l0.9,0.4c0,0.1-0.1,0.1-0.2,0.1c0,0-0.1,0-0.1,0c-0.5,0.5-1,1-1.5,1.5L225,3z M227.1,6.1
		c0,0.1-0.1,0.1-0.3,0.1c-0.4,0.6-0.9,1.2-1.5,1.8l-0.1-0.1c0.3-0.7,0.6-1.5,0.9-2.2L227.1,6.1z"/>
	<path class="st0" d="M0.7,15.7c2.3-0.9,3.9-2.9,4.4-5.3v-0.1l0,0c-1.3,0-2.7,0.2-4,0.4c-0.1,0.1-0.2,0.1-0.4,0.1
		c-0.3,0-0.7-0.5-0.7-0.8c0-0.1,0.1-0.2,0.2-0.3h0c0.1,0.4,0.5,0.4,0.9,0.4c0.7,0,3.3-0.1,3.7-0.2c0.2,0,0.3-0.3,0.4-0.3
		c0.3,0.1,0.6,0.3,0.8,0.6c0,0.1-0.1,0.1-0.2,0.2s-0.2,0.1-0.2,0.2c-0.5,2.5-2.4,4.5-4.9,5.2L0.7,15.7z"/>
	<path class="st0" d="M7.8,10C7.9,9.9,8,9.8,8.2,9.8C8.5,9.8,9,10,9,10.3c0,0.1,0,0.2-0.1,0.3c-0.1,0.2-0.1,0.4-0.1,0.7
		c0,0.3,0,1.5,0,1.8s-0.1,0.6-0.3,0.6s-0.4-0.4-0.4-0.7c0.1-0.2,0.1-0.5,0.1-0.7c0-0.4,0-0.7,0-1C8.3,10.4,8.3,10,7.8,10L7.8,10z
		 M10.9,9.6c0.1-0.2,0.2-0.3,0.4-0.3c0.3,0,1,0.2,1,0.5c0,0.1-0.1,0.1-0.1,0.2c0,0.1,0,0.1,0,0.2v2c0,2-0.9,3.3-3.2,3.9l-0.1-0.2
		c1.7-0.4,2.8-2,2.7-3.8v-1.1C11.6,9.9,11.6,9.5,10.9,9.6L10.9,9.6z"/>
	<path class="st0" d="M19.2,12.3c0.5,0,0.8-0.1,1-0.1c0.4,0,0.9,0.1,0.9,0.3s-0.1,0.2-0.5,0.2h-2c-1.2,0-2.3,0-3.5,0.1
		C15.1,13,14.9,13,14.8,13c-0.4-0.1-0.7-0.4-0.8-0.8c0-0.1,0-0.3,0.1-0.4h0.1c0.1,0.4,0.4,0.5,1.2,0.5L19.2,12.3z"/>
	<path class="st0" d="M22.2,13c1.1-0.8,1.9-2,2.3-3.3c0-0.2-0.4-0.3-0.5-0.3c0-0.2,0.2-0.3,0.4-0.2c0.4,0,1,0.3,1,0.5
		s-0.1,0.1-0.1,0.2c-0.1,0.1-0.2,0.2-0.2,0.3c-0.1,0.1-0.1,0.3-0.2,0.4h0.3c0.3,0,1.2-0.1,1.7-0.1c0.2,0,0.2,0,0.3-0.1
		s0.1-0.1,0.2-0.1c0.3,0.1,0.5,0.3,0.6,0.6c0,0.1-0.1,0.1-0.2,0.2c-0.1,0-0.2,0.1-0.2,0.2c-0.3,0.7-0.6,1.3-1,1.9
		c0.4,0.2,0.9,0.6,0.9,0.9c0,0.1-0.1,0.3-0.3,0.3c0,0,0,0,0,0c-0.2,0-0.3-0.2-0.4-0.3s-0.4-0.3-0.5-0.4c-1,1.1-2.2,2-3.6,2.5
		l-0.1-0.2c1.3-0.6,2.4-1.5,3.3-2.6c-0.5-0.4-1.1-0.6-1.8-0.8l0.1-0.2c0.7,0.1,1.3,0.3,1.9,0.6c0.4-0.6,0.8-1.3,1-2
		c0-0.1,0-0.1-0.1-0.1c-0.3,0-1.7,0.3-1.9,0.3c-0.1,0-0.2,0-0.3-0.1c-0.6,0.9-1.4,1.6-2.3,2.2L22.2,13z M27.1,9
		c0.6,0.2,1.1,0.7,1.1,1.1c0,0.2-0.1,0.3-0.2,0.3s-0.2,0-0.2-0.2c-0.1-0.4-0.4-0.8-0.8-1L27.1,9z M28.1,8.7c0.6,0.2,1.1,0.7,1.1,1.1
		S29.1,10,29,10s-0.2,0-0.2-0.2c-0.1-0.4-0.4-0.8-0.8-1L28.1,8.7z"/>
	<path class="st0" d="M29.1,13.7c3-1.5,5.4-3.6,5.4-4c0-0.2-0.2-0.3-0.4-0.3c0-0.1,0.2-0.2,0.4-0.2c0.4,0,1,0.4,1,0.7
		c0,0.1-0.1,0.1-0.2,0.1c-0.1,0-0.2,0.1-0.3,0.2c-0.6,0.6-1.3,1.1-2,1.6c0.2,0.1,0.3,0.2,0.3,0.4c0,0.1,0,0.1-0.1,0.3s0,0.7,0,1v1.3
		c0,0.3,0,0.5,0,0.7c0,0.4-0.1,0.5-0.3,0.5s-0.3-0.4-0.4-0.8c0.1-0.2,0.2-0.4,0.2-0.6c0-0.3,0-1,0-1.5c0-0.3,0-0.7-0.1-1
		c-1,0.7-2.2,1.4-3.4,1.8L29.1,13.7z"/>
	<path class="st0" d="M37.8,9.7c0.1-0.2,0.3-0.4,0.5-0.4c0.5,0,0.9,0.1,0.9,0.3c0,0.1,0,0.1-0.1,0.2c0,0.1,0,0.1,0,0.2
		c0,0.1,0.2,0.9,0.2,1.3l2.4-0.6c0.1,0,0.2-0.1,0.3-0.2c0.1-0.1,0.1-0.1,0.2-0.1c0.3,0.1,0.6,0.4,0.8,0.7c0,0.1-0.1,0.1-0.3,0.1
		c-0.1,0-0.2,0.1-0.3,0.3c-0.4,0.6-1,1.2-1.5,1.6L40.8,13c0.5-0.6,0.9-1.3,1.2-2c0,0,0,0,0,0s-1.9,0.5-2.5,0.6
		c0.3,1.1,0.6,2.4,0.8,3.2c0.1,0.3,0.2,0.4,0.2,0.5c0,0.5-0.1,0.7-0.3,0.7s-0.3-0.3-0.5-1.1c-0.1-0.4-0.3-1.9-0.7-3.1
		c-0.6,0.1-1.1,0.3-1.7,0.6c-0.1,0.1-0.2,0.2-0.3,0.2c-0.4-0.1-0.7-0.4-0.8-0.8c0-0.1,0.1-0.2,0.2-0.3l0,0c0,0.2,0.2,0.4,0.5,0.4
		c0.7-0.1,1.3-0.2,2-0.4c-0.1-0.6-0.3-1.1-0.4-1.4s-0.2-0.4-0.5-0.4C38,9.6,37.9,9.6,37.8,9.7L37.8,9.7z"/>
	<path class="st0" d="M44.7,10.8c0.1-0.1,0.2-0.2,0.4-0.2c0.3,0,0.9,0.3,0.9,0.5s-0.1,0.1-0.1,0.2c0,0.1-0.1,0.1-0.1,0.2
		c-0.1,1.7-0.9,3.2-2.1,4.3l-0.2-0.1c1.1-1.2,1.7-2.8,1.7-4.4C45.3,10.9,45,10.8,44.7,10.8L44.7,10.8z M50.8,11.7
		c-0.4,1.5-1.4,2.7-2.8,3.4c-0.1,0.1-0.2,0.2-0.3,0.3c-0.1,0.1-0.1,0.2-0.2,0.2C47.2,15.5,47,15.3,47,15c0-0.1,0.1-0.2,0.1-0.3
		c0-0.1,0.1-0.3,0.1-0.4c0-0.4,0-1.3,0-2.1s0-1.4,0-1.8s0-0.6-0.2-0.6c-0.1-0.1-0.3-0.1-0.4-0.1l0,0c0.1-0.2,0.2-0.3,0.4-0.3
		c0.3,0,0.9,0.2,0.9,0.5c0,0.1,0,0.2-0.1,0.3c-0.1,0.1-0.1,0.2-0.1,0.4c0,0.8-0.1,2.1-0.1,3.3v0.8v0.1c1.3-0.6,2.4-1.7,2.9-3
		L50.8,11.7z"/>
</g>
<g id="icons">
	<rect x="2" y="27" class="st0" width="45.8" height="28"/>
	<path class="st1" d="M48,33.2c-3.9,0-19.6,1.3-19.6,9.4c0.2,3.8,3.3,6.7,7.1,6.6c3.8,0.1,6.9-2.8,7.1-6.6c0-8.2-13.7-9.4-17.6-9.4
		S7.4,34.4,7.4,42.6c0.2,3.8,3.3,6.7,7.1,6.6c3.8,0.1,7-2.8,7.1-6.6c0-8.2-15.7-9.4-19.6-9.4"/>
</g>
</svg>
