<svg xmlns="http://www.w3.org/2000/svg" xmlns:xlink="http://www.w3.org/1999/xlink" viewBox="0 0 450 110" width="450" height="110"><defs><style>.cls-1{fill:none;stroke:#000;stroke-miterlimit:10;stroke-width:3px;filter:url(#luminosity-noclip);}.cls-2{fill:#317d50;}.cls-3{fill:#4d4d4d;}.cls-4{fill:#333;}.cls-5{mask:url(#mask);}</style><filter id="luminosity-noclip" x="2" y="33" width="68" height="44" filterUnits="userSpaceOnUse" color-interpolation-filters="sRGB"><feFlood flood-color="#fff" result="bg"/><feBlend in="SourceGraphic" in2="bg"/></filter><mask id="mask" x="2" y="33" width="68" height="44" maskUnits="userSpaceOnUse"><path class="cls-1" d="M70,42.25c-5.8,0-29,2-29,15a10.5,10.5,0,0,0,21,0c0-13-20.2-15-26-15s-26,2-26,15a10.5,10.5,0,0,0,21,0c0-13-23.2-15-29-15"/></mask></defs><title>tel_color</title><g id="text_rasterized_" data-name="text [rasterized]"><path class="cls-2" d="M109.42,7.59,110,6.9l1.47,1a1.15,1.15,0,0,1-.63.31v3.42a1.63,1.63,0,0,1-1.22.36V11h-7.5a5.57,5.57,0,0,1-3.19,4.37l-.17-.17A6.85,6.85,0,0,0,101,9.55V7l1.41.57Zm1.91-5.43,1.44,1.08c-.12.2-.29.29-.69.29h-3.23V4.77c0,.05-.22.37-1.21.37V3.53h-3.77V4.86s-.18.33-1.2.33V3.53H98.92l-.09-.33h3.84V1.4l1.77.13c0,.21-.13.3-.57.36V3.2h3.77V1.4l1.78.13c0,.23-.13.3-.57.36V3.2h1.73Zm-1.2,3.39.75-1,1.42,1c-.12.19-.3.28-.72.28H99.45l-.09-.33Zm-8,4c0,.35,0,.73,0,1.12h7.45V7.92h-7.41Z"/><path class="cls-2" d="M116.75,9.35c.48,0,1.14,0,1.94,0a18.73,18.73,0,0,0,1-2.19h-3c-.08,2.65-.5,5.9-2.78,8.22l-.21-.14c1.6-2.77,1.77-6.14,1.77-9.22V1.76l1.44.57h8.28l.51-.7,1.5,1a1.23,1.23,0,0,1-.63.32V5.43a1.8,1.8,0,0,1-1.23.32V5.19h-8.64v1.6h8.58l.75-.9,1.42,1c-.12.21-.3.3-.72.3h-5.44a25.44,25.44,0,0,1-1.89,2.19l5.12-.12A8.36,8.36,0,0,0,122.76,8l.06-.17c2.78.35,3.65,1.45,3.65,2.16a.54.54,0,0,1-.53.61.89.89,0,0,1-.39-.11,4.64,4.64,0,0,0-.76-1c-1.61.24-3.83.54-6.9.92a.54.54,0,0,1-.39.31Zm9.6,4.26,1.42,1c-.12.21-.3.3-.73.3H115.85l-.09-.33H121V12.3H117l-.09-.33H121V10.25l1.79.16c0,.21-.16.3-.6.36V12h2.49l.72-.93,1.38,1c-.1.22-.28.3-.7.3h-3.89v2.31h3.36ZM125.27,2.66h-8.64v2.2h8.64Z"/><path class="cls-2" d="M132.34,2.71a1.08,1.08,0,0,1,1-.61c.87,0,1.7.53,1.7,1,0,.27-.32.37-.48,1s-.29,1.14-.45,1.69a9.58,9.58,0,0,1,1.5-.16c2.1,0,2.53,1.21,2.53,3.32s-.75,5.6-2.65,5.6c-.36,0-.53-.26-.62-.7s-.93-1.09-1.77-1.81l.18-.23A6.92,6.92,0,0,0,135.56,13c.87,0,1.47-2.52,1.47-4.27,0-1.55-.15-2.42-1.51-2.43a8.65,8.65,0,0,0-1.65.24,45.59,45.59,0,0,1-2.67,6.88c-.29.57-.59,1-.92,1s-.6-.31-.6-.93c0-.37.42-.81.69-1.14a21.34,21.34,0,0,0,2.43-5.51,10.87,10.87,0,0,0-1.32.45c-.18.09-.4.39-.63.39a1.4,1.4,0,0,1-1.23-1.42.84.84,0,0,1,.47-.75l.07,0a.74.74,0,0,0,.74.86A10.73,10.73,0,0,0,133,6c.12-.45.27-1.15.36-1.59a7.43,7.43,0,0,0,.12-1c0-.47-.18-.71-.74-.71l-.36,0Zm6.45,1.91A4.62,4.62,0,0,1,142.54,9c0,.77-.32,1.26-.74,1.26s-.63-.13-.63-.71c0-1.87-.49-3.73-2.55-4.64Z"/><path class="cls-2" d="M147.46,14.36c4.38-.33,6.68-1.4,6.68-3.48a2.06,2.06,0,0,0-2.37-2.33,6.36,6.36,0,0,0-4.43,2.37c-.21.24-.28.6-.69.6a1.25,1.25,0,0,1-1.15-1c0-.27.13-.38.25-.59a8.94,8.94,0,0,0,.47-3,3.25,3.25,0,0,0-.08-.82,1.29,1.29,0,0,1,0-.33,1.43,1.43,0,0,1,.78-1.19,6.75,6.75,0,0,1,2.61-.85l0,0A2.51,2.51,0,0,1,147.06,2l.28-.16c.59.91,1.7,1,3,1l.79,0c.86,0,1.62.53,1.62,1.08,0,.35-.34.49-.69.49s-.63-.18-.93-.22a5.88,5.88,0,0,0-1-.07c-1.52,0-3.36.53-3.36,1.3a.7.7,0,0,0,.3.49,1,1,0,0,1,.28.68c0,.38-.16,1-.27,2.12a3.48,3.48,0,0,1-.24,1.12.23.23,0,0,0,0,.07c0,.07,0,.09.07.09a.74.74,0,0,0,.44-.13A9.07,9.07,0,0,1,151.89,8c2.14,0,3.55.92,3.55,3,0,2.59-2.62,3.63-7.93,3.74Z"/><path class="cls-2" d="M167.93,2.33l1.46,1.09a1.15,1.15,0,0,1-.64.32V14.61s-.33.42-1.24.42V13.74h-7v1s-.09.51-1.21.51V2.47l1.33.61h6.77Zm-.42,1.08h-7V8.14h7Zm-7,10h7V8.47h-7Z"/><path class="cls-2" d="M185.62,5.12c-.12.19-.29.28-.72.28h-5.3a13.7,13.7,0,0,0,6.26,6.06l0,.15a1.46,1.46,0,0,0-1.17,1.07,13.89,13.89,0,0,1-5.37-7.28v6.33h1.11l.76-1.06,1.41,1.09c-.12.22-.31.3-.72.3h-2.56V15s-.14.42-1.23.42V12.06h-3.12l-.09-.33h3.21V6.66a15.06,15.06,0,0,1-6.29,6.15l-.16-.22a16.63,16.63,0,0,0,5.52-7.19h-5.24l-.1-.33h6.27V1.41l1.9.18c0,.23-.18.35-.67.41V5.07h3.93L184.06,4Z"/><path class="cls-2" d="M186.35,8c2.52-1.55,5.25-4.43,6-6.59l2.19.47c-.05.17-.24.25-.66.3a19.15,19.15,0,0,0,6.88,4.42v.23A1.63,1.63,0,0,0,199.58,8a15,15,0,0,1-6-5.67,17.43,17.43,0,0,1-7.15,5.85ZM198,14.54l.81-1.06,1.54,1.1c-.12.2-.3.29-.73.29H187l-.11-.33h5.91V11.21h-4.29l-.09-.33h4.38v-3h-3.94l-.09-.33H196l.73-.92,1.4.94c-.12.23-.3.31-.72.31h-3.33v3h2.52l.78-1,1.45,1c-.1.23-.28.31-.7.31h-4v3.33Z"/><path class="cls-2" d="M214.16,1.92,215.63,3a1.44,1.44,0,0,1-.66.32V14.8s-.32.44-1.22.44V14.16h-9.66v.72s-.12.5-1.2.5V2.05l1.32.61h9.39ZM204.09,13.83h9.66V3h-9.66Zm8-3,1.3.94c-.12.21-.3.29-.7.29h-8l-.09-.33h3.72V8.33h-2.74L205.46,8h2.83V5.18H205L205,4.85h6l.69-.9,1.29.93c-.12.21-.3.3-.69.3h-2.83V8h1.18l.65-.87,1.24.9c-.12.22-.3.3-.69.3h-2.38v3.38h2Zm-1.76-2.1c1.32.5,1.76,1.15,1.76,1.63a.59.59,0,0,1-.54.62.6.6,0,0,1-.44-.22,3.82,3.82,0,0,0-.93-1.9Z"/><path class="cls-2" d="M217.56,11.69c2.16.69,3.62,1.88,3.62,2.87a.75.75,0,0,1-.73.8.84.84,0,0,1-.74-.48,5.28,5.28,0,0,0-2.31-3Z"/><path class="cls-2" d="M241.84,7.26c-.12.21-.3.3-.71.3h-1.84v3.23h.32l.69-1,1.31,1.05c-.12.2-.29.3-.71.3H228.06l-.09-.34h2.16V7.56h-2.31l-.09-.35h2.4V4.56a9.71,9.71,0,0,1-2.07,1.59L227.9,6a14.59,14.59,0,0,0,2.86-4.62l1.71.79c-.07.15-.24.22-.6.18A12.61,12.61,0,0,1,231,3.53l.32.13h7.56l.75-1,1.42,1c-.12.21-.31.3-.73.3h-1.07v3.2h.47l.72-1Zm-11.36,4.52a4.71,4.71,0,0,1,.1.94c0,1.65-1.05,2.63-2,2.63-.51,0-.64-.31-.64-.53a.86.86,0,0,1,.49-.68,2.88,2.88,0,0,0,1.77-2.38ZM231.23,4v3.2h1.51V4Zm0,3.55v3.23h1.51V7.56Zm1.2,4.4a2.91,2.91,0,0,1,1.18,2.11c0,.69-.4,1.14-.81,1.14a.59.59,0,0,1-.52-.34,5.39,5.39,0,0,0,.15-1.3,5.17,5.17,0,0,0-.22-1.55Zm3-8h-1.65v3.2h1.65Zm0,3.55h-1.65v3.23h1.65Zm-.33,4.32c1.59.81,2.1,1.79,2.1,2.46s-.3.88-.64.88a.67.67,0,0,1-.5-.25A5.7,5.7,0,0,0,235,12Zm3-7.87h-1.6v3.2h1.6Zm0,6.78V7.56h-1.6v3.23Zm-.07.91c2.65.76,3.48,2.06,3.48,2.88,0,.46-.28.8-.62.8a.82.82,0,0,1-.5-.2A7.24,7.24,0,0,0,238,11.85Z"/><path class="cls-2" d="M247.63,7.54V8.73c2,.49,2.64,1.4,2.64,2a.64.64,0,0,1-.59.7.82.82,0,0,1-.48-.2A4.82,4.82,0,0,0,247.63,9v6s-.17.44-1.14.44V9.71a11,11,0,0,1-2.76,3.35l-.18-.22A14.57,14.57,0,0,0,246,7.54h-2.37l-.09-.34h2.91V1.46l1.77.16c0,.21-.17.32-.63.36V7.2h.93l.69-.9,1.33,1c-.12.21-.3.29-.7.29ZM244,2.71c1.32.86,1.75,1.76,1.75,2.39s-.3.9-.64.9a.63.63,0,0,1-.48-.27,6.53,6.53,0,0,0-.81-2.93Zm6.63.41c0,.17-.18.27-.54.26a21.13,21.13,0,0,1-1.71,2.84l-.26-.11c.27-.86.62-2.28.87-3.48Zm6,6.38,1.24,1c-.07.18-.22.28-.51.31l-1.71.24v3.86s-.16.45-1.18.45V11.23l-4.32.61-.14-.3,4.46-.65V1.44l1.81.18c0,.21-.16.32-.63.36v8.73l.36,0Zm-6-3c2.22.26,2.92,1.16,2.92,1.79a.6.6,0,0,1-.57.66.82.82,0,0,1-.45-.16,5.15,5.15,0,0,0-2-2.12Zm.24-4c2.11.36,2.77,1.26,2.77,1.88a.59.59,0,0,1-.57.64.77.77,0,0,1-.45-.18,5.2,5.2,0,0,0-1.84-2.19Z"/><path class="cls-2" d="M270.71,9l1.77.15c0,.21-.13.31-.58.36v5.37s-.19.36-1.19.36V13.92h-9.46V15s-.17.36-1.18.36V9l1.76.15c0,.2-.14.31-.58.36v4.08h4.07v-6H262v.64s-.2.34-1.17.34V2.85l1.76.15c0,.21-.14.32-.59.36V7.25h3.33V1.5l1.9.18c0,.23-.2.35-.68.41V7.25H270V2.85l1.79.15c0,.21-.17.32-.6.36V8.14s-.18.35-1.19.35V7.58h-3.42v6h4.17Z"/><path class="cls-2" d="M283.87,9.22A8.06,8.06,0,0,0,285,11.61,20.3,20.3,0,0,0,287,9.78l1.41.92a.25.25,0,0,1-.24.1.8.8,0,0,1-.24,0,26.09,26.09,0,0,1-2.64,1.13,6.5,6.5,0,0,0,3.29,2.25l0,.17a1.32,1.32,0,0,0-.94,1.08,6.14,6.14,0,0,1-2.48-2.13c-1.05.44-2.49,1-4.39,1.68a.59.59,0,0,1-.36.35l-.75-1.44,1.32-.2V9.22H279.7l.14.11a.93.93,0,0,1-.59.24c-.16,3.24-.48,4.92-1.11,5.41a2.3,2.3,0,0,1-1.57.44c0-.69-.17-.87-1.37-1.06l0-.24,1.65,0a.61.61,0,0,0,.46-.12c.39-.33.63-1.89.78-4.73H275.8c0,.33-.07.66-.1.94a1.19,1.19,0,0,1-.62.14,4,4,0,0,1-.55,0c.22-1.56.43-3.76.52-5l1.25.48h1.83V2.73h-3.6l-.09-.33H278l.53-.7L280,2.75a1.26,1.26,0,0,1-.68.34V6.6s-.34.32-1.15.32V6.18h-2.07c-.05.72-.14,1.82-.23,2.8H278l.54-.67.76.6v0h1.64v-7l1.36.56h3.44l.72-.92,1.41,1c-.12.21-.32.3-.72.3h-5V4.58h3.3l.65-.83,1.23.87c-.11.21-.29.3-.69.3H282.1v1.8h3.35l.66-.85,1.24.88c-.12.22-.3.3-.69.3H282.1V8.88h4.23l.74-1,1.39,1c-.12.2-.3.29-.72.29Zm-1.77,0v4.24l2.81-.49a11.24,11.24,0,0,1-1.35-3.75Z"/><path class="cls-2" d="M293.6,13l2.41-.36,0,.22c-1.12.42-2.71,1-4.9,1.68a.54.54,0,0,1-.38.33l-.61-1.45c.51,0,1.35-.15,2.37-.29V8.51H290.3l-.09-.33h2.31V6h-1.58l0-.17c-.23.22-.45.44-.68.63L290,6.31a13.43,13.43,0,0,0,2.2-4.87l1.82.17c0,.18-.18.27-.56.31,1.91.75,2.49,1.61,2.49,2.19a.63.63,0,0,1-.61.68.76.76,0,0,1-.47-.21,6.08,6.08,0,0,0-1.48-2.48,14.47,14.47,0,0,1-2.36,3.56h2.78l.63-.84,1.23.88c-.12.21-.3.29-.69.29H293.6V8.18h.57l.67-.89,1.2.9V2l1.2.51h1.52l.66-.87,1.26.92c-.11.21-.3.3-.69.3h-1.26V4.44h.33l.37-.48,1.11.76a.7.7,0,0,1-.43.23V7s-.3.3-.95.3V6.93h-.4V8.61h.33l.64-.87,1.26.9c-.12.21-.3.3-.69.3h-3.24v.44a1,1,0,0,1-.87.34H296V8.27c-.1.18-.28.24-.64.24h-1.8ZM290.72,9.3A3.12,3.12,0,0,1,292,11.54c0,.57-.28.92-.6.92a.55.55,0,0,1-.42-.25,3,3,0,0,0,0-.43,6.88,6.88,0,0,0-.48-2.4Zm5.31.24c0,.18-.15.27-.5.29a13.69,13.69,0,0,1-1.29,2.57l-.25-.09c.18-.79.39-2.05.54-3.13Zm7.42,4.23.92.84c-.12.19-.27.28-.68.28h-8.88l-.09-.33h1.5V9.86l1.2.51h4.37l.54-.71,1.36,1c-.1.16-.3.24-.69.3v3.59Zm-5.61-10.9h-.78V4.44h.78Zm1.32,1.92h-2.1V6.6h2.1Zm-1.3,3.82V6.93h-.8V8.61Zm-.6,2.1v3.85h1V10.71Zm2.8,0h-.94v3.85h.94Zm1.47-6.43a7.06,7.06,0,0,1-1.06,2.13l-.24-.11A19.48,19.48,0,0,0,301,1.44l1.63.27c0,.2-.15.3-.51.32A16.8,16.8,0,0,1,301.64,4h.87l.61-.82,1.17.86c-.12.21-.31.29-.69.29Zm.72,3.34.66-.87,1.25.92c-.12.21-.3.29-.69.29h-2.85l-.09-.34Zm-.3,3.09h-1v3.85h1Z"/><path class="cls-2" d="M313.52,10.1v3.55a21.91,21.91,0,0,0,2.85.15h3.51V14a1,1,0,0,0-.71,1h-2.89c-3.72,0-5.76-.66-7-3.56a7.86,7.86,0,0,1-3.13,3.93l-.17-.22c1.79-1.58,2.51-4.36,2.73-6.8l1.86.32c0,.22-.21.29-.6.29a12.61,12.61,0,0,1-.54,2.07,4.54,4.54,0,0,0,2.91,2.34V6.66h-4.41l-.09-.33h8.48l.76-.91.35.24a14.09,14.09,0,0,0,.55-1.7h-9.76c0,1.37-.77,2.08-1.53,2.08-.39,0-.66-.19-.66-.55a.86.86,0,0,1,.49-.69,2.21,2.21,0,0,0,1.26-2H308a4.17,4.17,0,0,1,.17.84h4.12V1.35l1.92.18c0,.23-.16.33-.67.41V3.63h4.35l.72-.73,1.29,1.24a.79.79,0,0,1-.57.16,12.18,12.18,0,0,1-1.64,1.54l.81.54c-.12.21-.3.28-.7.28h-4.26V9.77H316l.75-1,1.43,1c-.11.21-.3.29-.71.29Z"/><path class="cls-2" d="M327.51,13.71a.42.42,0,0,1-.37.15,1.83,1.83,0,0,1-.42-.07,18.61,18.61,0,0,1-5.26,1.59l-.08-.21A15.39,15.39,0,0,0,326,12.64Zm-3.94-8.5v.26s-.19.41-1.19.41V1.79l1.29.54h9.17l.51-.63,1.4,1a1.08,1.08,0,0,1-.58.28V5.43a1.65,1.65,0,0,1-1.18.33V5.21ZM333,12.73a1.62,1.62,0,0,1-1,.37h-.2v-.53h-7v.24s-.13.44-1.2.44V6l1.31.55h6.78l.51-.66,1.41,1a1,1,0,0,1-.57.27ZM325.9,2.66h-2.33V4.88h2.33Zm5.87,4.24h-7V8.43h7Zm0,3.42V8.78h-7v1.54Zm-7,1.92h7V10.67h-7Zm4.68-9.58h-2.38V4.88h2.38Zm.1,10.33c4.21.33,5.39,1.28,5.39,1.88,0,.31-.29.52-.67.52a1,1,0,0,1-.6-.21,12.31,12.31,0,0,0-4.2-1.95ZM333,2.66h-2.4V4.88H333Z"/><path class="cls-2" d="M345,2.78c-.12.21-.3.28-.72.28h-1.62V15c0,.1-.37.42-1,.42h-.19V11.82c-1.08.38-2.5.87-4.32,1.43a.55.55,0,0,1-.41.32l-.5-1.59c.33,0,.78-.05,1.34-.11V3.06h-1.26l-.08-.33h6.55l.77-1Zm-3.51,2.85V3.06h-2.71V5.63Zm0,2.92V6h-2.71V8.55Zm-2.71.33v2.88l2.71-.3V8.88Zm10.12-5.34,1.28,1.17c-.11.15-.26.2-.61.24a18.47,18.47,0,0,1-2.44,6.45,10,10,0,0,0,3.24,2.91l0,.15a1.32,1.32,0,0,0-1.1.92,10.43,10.43,0,0,1-2.76-3.07A12.33,12.33,0,0,1,343,15.39l-.14-.24a12.6,12.6,0,0,0,3.16-3.7,21,21,0,0,1-1.88-6.83h-.91l-.11-.33h5.07Zm-4.43,1.08a17,17,0,0,0,2,5.86,21.08,21.08,0,0,0,1.79-5.86Z"/><path class="cls-2" d="M356,12.69l3.35-.58,0,.24c-1.45.55-3.52,1.28-6.4,2.19a.64.64,0,0,1-.39.35L352,13.3c.6-.05,1.62-.2,2.85-.42V10.05h-2.44l-.09-.33h2.53V7.62l1.85.17c0,.22-.2.31-.65.37V9.72h.9l.74-1,1.39,1c-.12.22-.3.3-.7.3H356Zm.32-8.11c1.83.56,2.41,1.48,2.41,2.13a.68.68,0,0,1-.63.76.69.69,0,0,1-.48-.22,2.36,2.36,0,0,0-.21-.84c-1.09.33-2.55.75-4.48,1.26a.61.61,0,0,1-.41.33L352,6.46c.34,0,.82,0,1.41-.07a31.88,31.88,0,0,0,.88-3.27H352.1L352,2.78h5.11l.75-1,1.41,1c-.12.21-.3.3-.7.3h-2.84A24.9,24.9,0,0,1,354,6.36c1-.07,2.11-.16,3.31-.27a4.78,4.78,0,0,0-1.06-1.38Zm9.79.31c-.1.21-.31.29-.7.29h-.63a15.23,15.23,0,0,1-2.13,6.25,9.43,9.43,0,0,0,3.55,2.86l0,.14a1.37,1.37,0,0,0-1.14,1,9.5,9.5,0,0,1-3-3.1,11.21,11.21,0,0,1-4.36,3.09l-.09-.25a10,10,0,0,0,4-3.75,18.06,18.06,0,0,1-1.47-5,10.25,10.25,0,0,1-1.68,2.33l-.23-.14a20.28,20.28,0,0,0,2.13-7.12l1.89.42c0,.18-.16.3-.55.31a20.67,20.67,0,0,1-.87,2.69H364l.75-1Zm-5.83,1a14.59,14.59,0,0,0,1.72,4.6,16.82,16.82,0,0,0,1.41-5.3H360.6Z"/><path class="cls-2" d="M368.49,2.84a1.05,1.05,0,0,1,1-.63c.9,0,1.85.52,1.85,1.12,0,.36-.29.42-.45,1.32a43,43,0,0,0-.51,6c0,2.15,1.09,2.62,2.8,2.62,2.21,0,4.14-1.16,5.51-3.57l.28.14c-1.23,3.28-3.4,4.6-5.86,4.6-2.07,0-3.78-.81-3.78-3.74,0-2,.24-5.05.4-7.12V3.5c0-.63-.57-.65-.84-.65a1.42,1.42,0,0,0-.36,0Z"/><path class="cls-2" d="M385,2.47a1,1,0,0,1,1-.62c.91,0,1.78.43,1.78.88,0,.24-.24.35-.3.71,0,.16,0,.48-.06.88.63,0,2.82-.31,3-.87l.16,0c.56.16,1.56.1,1.56.63,0,.37-.57.52-1.39.7a30.64,30.64,0,0,1-3.33.45c0,.36,0,2.15,0,2.44.24,0,2.57-.17,2.57-.57a.37.37,0,0,0-.2-.29l.18-.15c.33.19.42.3.75.3s1,.09,1,.4-.16.8-4.26,1.13c0,.88.08,1.66.15,2.13l0,.47a11.07,11.07,0,0,1,3.57,1.58,1.37,1.37,0,0,1,.66,1.09.54.54,0,0,1-.54.53,1.29,1.29,0,0,1-1-.53,6.46,6.46,0,0,0-2.62-1.65c0,.24,0,.59,0,.8,0,1.23-.84,1.84-2.85,1.84s-3.12-1-3.12-2.07,1.56-1.88,3.28-1.88a9.76,9.76,0,0,1,1.53.12c0-.17-.13-2-.15-2.36-.57,0-1.45.08-2.13.08-1.54,0-2.17-.46-2.17-1.13,0-.48.57-1,1.41-1.41l.15.2c-.65.33-.93.7-.93,1s.48.58,1.47.58c.66,0,1.6-.06,2.17-.12l0-2.49c-.8,0-1.91.11-2.45.11-1.44,0-2.14-.31-2.65-1.31l.19-.21a2.89,2.89,0,0,0,2.1.72c.69,0,2.09,0,2.78-.12V3.69c0-.79,0-1.17-.89-1.17a1.63,1.63,0,0,0-.36,0Zm1.56,9.18a7.45,7.45,0,0,0-1.73-.25c-1.42,0-2.32.48-2.32,1.15s.91,1.17,2.25,1.17,1.81-.35,1.8-1.22C386.51,12.38,386.52,11.79,386.51,11.65Z"/><path class="cls-2" d="M400.22,2.36a1.12,1.12,0,0,1,1-.65c.78,0,1.69.44,1.69,1a1.44,1.44,0,0,1-.19.55,5.7,5.7,0,0,0-.06,1.19c.84-.06,1.75-.12,2.17-.13.65,0,1-.17,1.2-.45,1,.22,1.86.61,1.86,1.12,0,.18-.25.29-.48.29-.43,0-1-.17-1.74-.21-.31,0-.75,0-1.2,0-.63,0-1.3,0-1.81.06,0,1.44,0,2.54,0,2.81a3.92,3.92,0,0,1,.47,2.16c0,2.49-1.37,4.24-4.62,5.08l-.15-.27c2.22-.87,3.36-2.47,3.48-3.9a1.92,1.92,0,0,1-1.64.71,2.28,2.28,0,0,1-2.35-2.37,2.48,2.48,0,0,1,2.52-2.51,2.12,2.12,0,0,1,1.27.36c0-.72,0-1.48,0-2a24.73,24.73,0,0,0-4.58.76c-.33.12-.43.29-.76.29a1.77,1.77,0,0,1-1.49-1.43.9.9,0,0,1,.27-.64h.11a.94.94,0,0,0,.46.7,1.58,1.58,0,0,0,1,.21c.71,0,4.17-.43,5-.49-.06-1.7-.12-2.12-.93-2.12-.15,0-.29,0-.42,0Zm1.66,6.52a1.45,1.45,0,0,0-1.44-1.5c-.79,0-1.5.63-1.5,1.83a1.46,1.46,0,0,0,1.41,1.56C401.42,10.77,401.88,10.15,401.88,8.88Z"/><path class="cls-2" d="M409.47,11.12a2.12,2.12,0,1,1-2.12,2.11A2.1,2.1,0,0,1,409.47,11.12Zm1.65,2.11a1.65,1.65,0,1,0-1.65,1.65A1.66,1.66,0,0,0,411.12,13.23Z"/></g><g id="text_outline_" data-name="text [outline]"><path class="cls-3" d="M180.36,94.54a7.14,7.14,0,0,0,0,12.49v.24h-4.8v-13h4.8Z"/><path class="cls-3" d="M194.6,100.84a11.33,11.33,0,0,0,.5-1.6h-9.79c0,1.22-.7,1.82-1.31,1.82-.4,0-.54-.22-.54-.42a.69.69,0,0,1,.42-.54,1.93,1.93,0,0,0,1-1.81h.23a4.08,4.08,0,0,1,.15.63h6.94A17,17,0,0,0,193.75,96l1.45.59c0,.1-.15.15-.32.15l-.22,0a12.93,12.93,0,0,1-2,2.22H195l.61-.62,1.09,1a.9.9,0,0,1-.53.16,9.06,9.06,0,0,1-1.4,1.44Zm-1.08-.41,1,1c-.12.12-.29.15-.66.17a10.86,10.86,0,0,1-3.09,3.06,19.51,19.51,0,0,0,5.39,1.6v.17a1.09,1.09,0,0,0-.91.84,17.23,17.23,0,0,1-5.3-2.1,19.84,19.84,0,0,1-6.11,2.1l-.08-.25a18.67,18.67,0,0,0,5.58-2.29,9.25,9.25,0,0,1-2.88-3.36h-1.1l-.1-.33h7.53Zm-9.13-4.49A64.1,64.1,0,0,0,194,94.3l1,1a.43.43,0,0,1-.27.08,1,1,0,0,1-.47-.14,79.37,79.37,0,0,1-9.81,1Zm1.33.42c1.4.54,1.83,1.27,1.83,1.79a.56.56,0,0,1-.49.62.55.55,0,0,1-.39-.2,4.3,4.3,0,0,0-1.09-2.1Zm1.11,5a8.92,8.92,0,0,0,3.23,2.89,10,10,0,0,0,2.73-2.89Zm2.08-5.29c1.25.64,1.66,1.38,1.66,1.92s-.26.7-.54.7a.5.5,0,0,1-.4-.21,4.34,4.34,0,0,0-.87-2.32Z"/><path class="cls-3" d="M199.59,101.61a23.16,23.16,0,0,0,3.29-7.31l1.47.46c0,.17-.18.27-.53.25a22.63,22.63,0,0,1-1.37,3.08l.53.2c0,.13-.17.22-.42.25V107a1,1,0,0,1-.74.32h-.17V99.44a13,13,0,0,1-1.85,2.31Zm12-4.5,1.18.9c-.12.21-.25.31-.65.31h-1.89v7.45c0,.78-.24,1.36-1.72,1.53,0-.8-.67-.88-2-1v-.23h2.34c.3,0,.4-.1.4-.35V98.32h-5.26L204,98h5.35V94.31l1.57.14c0,.21-.1.31-.63.38V98H211Zm-6.54,2.75c1.82,1,2.39,2.18,2.39,2.94,0,.5-.26.84-.57.84a.68.68,0,0,1-.45-.22,7.1,7.1,0,0,0-1.52-3.46Z"/><path class="cls-3" d="M219.78,95.1,221,96a1.11,1.11,0,0,1-.6.28v8.15s-.25.32-.88.32v-1h-2.16v1.37a.84.84,0,0,1-.74.31h-.14V95.22l1.05.45h1.85Zm-.29.91h-2.16v3.47h2.16Zm-2.16,7.37h2.16V99.82h-2.16Zm10.58-5.13,1.22.88c-.12.21-.27.29-.66.29h-7.85l-.08-.33H224V96.76h-2.82l-.08-.33H224V94.31l1.55.13c0,.24-.18.32-.66.39v1.6h1.54l.63-.83,1.21.87c-.11.21-.28.29-.67.29h-2.71v2.33h2.34Zm-.73,3.37.61-.81,1.15.86c-.11.21-.26.29-.64.29h-1.7v3.91c0,.74-.16,1.29-1.48,1.41,0-.74-.55-.84-1.57-.91v-.24h1.84c.25,0,.32,0,.32-.26V102h-5.06l-.1-.34h5.16V99.9l1.47.11c0,.19-.11.28-.58.34v1.27Zm-5.23,1c1.43.7,1.89,1.53,1.89,2.1s-.25.7-.54.7a.57.57,0,0,1-.44-.21,5.25,5.25,0,0,0-1.06-2.49Z"/><path class="cls-3" d="M236.86,99.3h-3v7.59c0,.06-.07.38-.9.38V94.75l1,.46h2.75l.39-.52,1.13.81a.94.94,0,0,1-.53.25v4s-.26.28-.87.28Zm0-3.76h-3v1.52h3Zm-3,3.42h3V97.39h-3Zm7.9,2.31a1.08,1.08,0,0,1-.55.26v4.31a1.07,1.07,0,0,1-.87.31v-.66H237V106s-.13.31-.87.31v-5.73l.94.42h3.25l.39-.52Zm-1.42,0H237V103h3.44ZM237,105.15h3.44v-1.8H237Zm6.82-10.53,1.22.9a1.2,1.2,0,0,1-.62.28v10.12c0,.73-.21,1.22-1.51,1.35,0-.79-.58-.87-1.6-1v-.2h1.89c.25,0,.31-.06.31-.21V99.3h-3.07v.39s-.12.31-.88.31V94.79l.94.42h2.87Zm-.31.92h-3.07v1.52h3.07ZM240.39,99h3.07V97.39h-3.07Z"/><path class="cls-3" d="M248.31,107a7.13,7.13,0,0,0,0-12.49V94.3h4.81v13h-4.81Z"/><path class="cls-3" d="M269.8,101a2.92,2.92,0,0,1-2.56,1.43,3,3,0,0,1-3.15-3.2,3.21,3.21,0,0,1,3.42-3.41c1.83,0,3.51,1.38,3.51,4.94,0,2.77-.89,5.58-3.71,5.58-2,0-2.93-1.17-2.93-1.91,0-.33.17-.56.45-.56s.46.18.73.72a1.71,1.71,0,0,0,1.75,1.2c2.47,0,2.54-3.88,2.54-4.79Zm-2.31.85a2.28,2.28,0,0,0,2.27-2.32c0-1.46-.78-3.18-2.24-3.18s-2.24,1.2-2.24,2.84C265.28,99.9,265.52,101.83,267.49,101.83Z"/><path class="cls-3" d="M276.38,99.69a.72.72,0,1,1-1.43,0,.72.72,0,1,1,1.43,0Zm0,5.81a.73.73,0,0,1-.72.76.76.76,0,1,1,.72-.76Z"/><path class="cls-3" d="M281.24,105.24c-.73-.83-1.13-2.17-1.13-4.25s.4-3.46,1.3-4.32a3.56,3.56,0,0,1,4.66,0c.91.86,1.32,2.33,1.32,4.32s-.41,3.42-1.14,4.25a3.25,3.25,0,0,1-2.52,1.08A3.21,3.21,0,0,1,281.24,105.24Zm0-4.23c0,2.24.32,4.77,2.45,4.77s2.46-2.27,2.46-4.77c0-2.23-.4-3.42-.92-4a2,2,0,0,0-1.54-.64C282,96.33,281.27,98,281.27,101Z"/><path class="cls-3" d="M292.08,105.24c-.73-.83-1.14-2.17-1.14-4.25s.41-3.46,1.3-4.32a3.57,3.57,0,0,1,4.67,0c.91.86,1.32,2.33,1.32,4.32s-.41,3.42-1.14,4.25a3.25,3.25,0,0,1-2.52,1.08A3.19,3.19,0,0,1,292.08,105.24Zm0-4.23c0,2.24.33,4.77,2.46,4.77S297,103.51,297,101c0-2.23-.41-3.42-.92-4a2,2,0,0,0-1.54-.64C292.79,96.33,292.1,98,292.1,101Z"/><path class="cls-3" d="M314.43,100.14a4.33,4.33,0,0,1-3.51,2,5.41,5.41,0,0,1-3-1,5.11,5.11,0,0,0-2.85-1,4.1,4.1,0,0,0-3,1.43l-.21-.18a4.3,4.3,0,0,1,3.5-2,5.41,5.41,0,0,1,3,1,5.16,5.16,0,0,0,2.86,1,4.13,4.13,0,0,0,3-1.43Z"/><path class="cls-3" d="M321.24,98.08c0-.57-.09-.83-.35-.83a3.63,3.63,0,0,0-1,.28l-.11-.42a11.79,11.79,0,0,0,2.4-1.22l.15.09v8.56c0,1,.08,1.12,1.33,1.12v.45h-3.85v-.45c1.31,0,1.4-.09,1.4-1.12Z"/><path class="cls-3" d="M333.53,100.57c1.25.49,2.45,1.57,2.45,2.86,0,1.47-1.06,2.89-3.53,2.89-1.86,0-3.43-1-3.43-2.83,0-.84.52-1.92,2.31-2.64v0a2.9,2.9,0,0,1-2-2.64c0-1.1.88-2.39,3.14-2.39s3.13,1.15,3.13,2.41-.82,1.86-2.07,2.32Zm1.23,3.09a2.07,2.07,0,0,0-.84-1.53,5.83,5.83,0,0,0-1.9-1,2.58,2.58,0,0,0-1.91,2.34,2.18,2.18,0,0,0,2.33,2.27A2.08,2.08,0,0,0,334.76,103.66Zm-4.37-5.61c0,1.25,1.15,1.78,2.37,2.22,1-.4,1.78-.92,1.78-2.08,0-.73-.36-1.85-2.09-1.85C331.07,96.34,330.39,97.14,330.39,98.05Z"/><path class="cls-3" d="M341.27,99.69a.72.72,0,1,1-1.43,0,.72.72,0,1,1,1.43,0Zm0,5.81a.73.73,0,0,1-.72.76.76.76,0,1,1,.72-.76Z"/><path class="cls-3" d="M346.13,105.24c-.73-.83-1.13-2.17-1.13-4.25s.4-3.46,1.3-4.32a3.56,3.56,0,0,1,4.66,0c.91.86,1.32,2.33,1.32,4.32s-.41,3.42-1.14,4.25a3.25,3.25,0,0,1-2.52,1.08A3.2,3.2,0,0,1,346.13,105.24Zm0-4.23c0,2.24.32,4.77,2.45,4.77s2.46-2.27,2.46-4.77c0-2.23-.4-3.42-.92-4a2,2,0,0,0-1.54-.64C346.84,96.33,346.16,98,346.16,101Z"/><path class="cls-3" d="M357,105.24c-.72-.83-1.13-2.17-1.13-4.25s.41-3.46,1.3-4.32a3.57,3.57,0,0,1,4.67,0c.91.86,1.31,2.33,1.31,4.32s-.4,3.42-1.13,4.25a3.25,3.25,0,0,1-2.52,1.08A3.22,3.22,0,0,1,357,105.24Zm0-4.23c0,2.24.33,4.77,2.45,4.77s2.47-2.27,2.47-4.77c0-2.23-.41-3.42-.92-4a2.05,2.05,0,0,0-1.55-.64C357.68,96.33,357,98,357,101Z"/><path class="cls-4" d="M105.21,33.93c9.54,0,12.93,10.82,12.93,20.67,0,9.35-3.39,20.74-13,20.74S92,64.78,92,54.67c0-9.35,3.52-20.74,13.12-20.74ZM105,36c-5.76,0-7.3,9.6-7.3,18.5s1.86,18.62,7.43,18.62c5.76,0,7.29-9.6,7.29-18.56S110.84,36,105.08,36Z"/><path class="cls-4" d="M125.76,74.57V72.84c5.82-.45,6.14-1,6.14-5.57V42.63c0-3.32-.26-3.64-3.07-3.77l-3.07-.13V37.26a56.56,56.56,0,0,0,11.39-3.33V67.27c0,4.61.38,5.12,6.2,5.57v1.73Z"/><path class="cls-4" d="M177.81,66.18c-.83,2.69-1.47,5.51-2.24,8.39H151.64V73.1c3.58-3.52,7.16-7.17,10.36-10.88,4-4.74,8-10,8-15.49s-2.81-8.51-7.55-8.51c-4.35,0-7,3.45-8.7,6l-1.41-1.28L156,37.71a11.6,11.6,0,0,1,8.64-3.78,10.51,10.51,0,0,1,10.75,10.82c0,5.56-2.56,9.34-8.45,15.61l-9.09,9.54h12c3.46,0,4.29-.26,6.21-4.29Z"/><path class="cls-4" d="M197.6,33.93c9.54,0,12.93,10.82,12.93,20.67,0,9.35-3.39,20.74-13,20.74s-13.12-10.56-13.12-20.67c0-9.35,3.52-20.74,13.12-20.74ZM197.41,36c-5.76,0-7.3,9.6-7.3,18.5s1.86,18.62,7.43,18.62c5.76,0,7.29-9.6,7.29-18.56S203.23,36,197.47,36Z"/><path class="cls-4" d="M234,61.9H219.41l.9-3.52H235Z"/><path class="cls-4" d="M242.87,74.57V72.84c5.82-.45,6.14-1,6.14-5.57V42.63c0-3.32-.26-3.64-3.07-3.77l-3.07-.13V37.26a56.56,56.56,0,0,0,11.39-3.33V67.27c0,4.61.38,5.12,6.21,5.57v1.73Z"/><path class="cls-4" d="M284.42,50.51c5.63,1.08,8.89,5.05,8.89,9.72,0,10.37-12.16,15.11-16.77,15.11a10.72,10.72,0,0,1-6.4-2.18,2.45,2.45,0,0,1-1-2.3,3.53,3.53,0,0,1,1.47-2.11,1.1,1.1,0,0,1,1.54,0A11.86,11.86,0,0,0,280.06,72c4.55,0,7.75-3.39,7.75-9.73A7.85,7.85,0,0,0,279.68,54a14.35,14.35,0,0,0-4.1.7l-.44-1.86c5.88-1.85,10.24-4.35,10.24-9.08,0-4-2.69-6-6.08-6s-6.08,2.69-7.68,5.06l-1.35-1.28,2.82-4a11.08,11.08,0,0,1,8.06-3.58h.07c5.76,0,9.53,3.58,9.53,8.45a6.25,6.25,0,0,1-2,4.54,28.42,28.42,0,0,1-4.35,3.46Z"/><path class="cls-4" d="M317.22,61.9H302.63l.9-3.52h14.65Z"/><path class="cls-4" d="M337.91,50.51a10,10,0,0,1,4-1.09c6.85,0,11.52,5.25,11.52,11.84,0,7.61-5.44,14.08-13.12,14.08-7.48,0-13.12-6.15-13.12-16,0-14,9.73-21.25,16.52-23.75a55.38,55.38,0,0,1,8.19-2l.44,2a31,31,0,0,0-7,2.24,20.68,20.68,0,0,0-11.78,14.79ZM339.38,53a13.17,13.17,0,0,0-6.08,1.79,18.38,18.38,0,0,0-.38,4.42c0,7.68,3.26,13.95,8.51,13.95,5,0,6.53-5.37,6.53-9.6,0-5.31-2.69-10.56-8.51-10.56Z"/><path class="cls-4" d="M385.41,35.47c-6,13-12,26-18.12,39.23l-4.73.64-.45-.71a344,344,0,0,0,19-35.26H367.29c-4.22,0-4.6.58-6.14,4.8h-1.86c.58-3.52.9-6.72,1.16-9.47h24.44Z"/><path class="cls-4" d="M398.62,50.51a10,10,0,0,1,4-1.09c6.85,0,11.52,5.25,11.52,11.84,0,7.61-5.44,14.08-13.12,14.08-7.49,0-13.12-6.15-13.12-16,0-14,9.73-21.25,16.51-23.75a55.69,55.69,0,0,1,8.19-2l.45,2a31.06,31.06,0,0,0-7,2.24,20.67,20.67,0,0,0-11.77,14.79ZM400.09,53A13.09,13.09,0,0,0,394,54.79a18.34,18.34,0,0,0-.39,4.42c0,7.68,3.27,13.95,8.52,13.95,5,0,6.52-5.37,6.52-9.6,0-5.31-2.69-10.56-8.51-10.56Z"/><path class="cls-4" d="M446.11,35.47c-6,13-12,26-18.11,39.23l-4.74.64-.45-.71a344,344,0,0,0,19-35.26H428c-4.23,0-4.61.58-6.15,4.8H420c.57-3.52.89-6.72,1.15-9.47H445.6Z"/><path class="cls-2" d="M3,25.77a9.8,9.8,0,0,0,6-7.32.22.22,0,0,0,0-.08s0,0-.05,0a43.59,43.59,0,0,0-5.47.54,1.09,1.09,0,0,1-.49.13c-.39,0-.94-.64-.94-1.09a.4.4,0,0,1,.28-.4h0c.13.62.71.62,1.19.62,1,0,4.46-.18,5.14-.25.31,0,.43-.34.62-.34a2,2,0,0,1,1,.81c0,.11-.15.17-.25.23s-.24.12-.28.27A9.59,9.59,0,0,1,3.18,26Z"/><path class="cls-2" d="M12.63,17.88a.57.57,0,0,1,.55-.31c.36,0,1.15.3,1.15.73a2,2,0,0,1-.11.39,2.78,2.78,0,0,0-.09.92c0,.35,0,2.06,0,2.46s-.08.85-.38.85-.5-.51-.5-1a3.29,3.29,0,0,0,.14-1c0-.48,0-1,0-1.35,0-1.17,0-1.61-.79-1.63Zm4.29-.66a.63.63,0,0,1,.55-.38c.43,0,1.3.32,1.3.65,0,.1-.11.17-.15.25a.58.58,0,0,0-.07.26v2.78c0,2.77-1.28,4.49-4.34,5.36l-.15-.25c2.58-1,3.74-2.57,3.74-5.16V19.12c0-1.3,0-1.95-.86-1.88Z"/><path class="cls-2" d="M28.06,21c.73,0,1.16-.09,1.33-.09.53,0,1.21.19,1.21.47s-.19.28-.62.28h-.65c-.47,0-1.33,0-2,0a32.38,32.38,0,0,0-4.77.2,1.3,1.3,0,0,1-.47.16A1.53,1.53,0,0,1,21,20.87a.68.68,0,0,1,.2-.55h.08c.12.58.55.69,1.67.69Z"/><path class="cls-2" d="M32.1,21.93a9,9,0,0,0,3.21-4.48c0-.3-.53-.36-.66-.36.05-.2.22-.31.5-.31.49,0,1.32.39,1.32.7,0,.13-.12.2-.21.26a.94.94,0,0,0-.29.4,4.23,4.23,0,0,1-.3.54,1.94,1.94,0,0,0,.34,0c.36,0,1.68-.07,2.31-.16.24,0,.26-.05.36-.14s.18-.18.25-.18a2,2,0,0,1,.9.79c0,.13-.1.16-.26.22a.5.5,0,0,0-.3.27,16.28,16.28,0,0,1-1.39,2.61c.52.32,1.2.82,1.2,1.31a.38.38,0,0,1-.39.38c-.22,0-.39-.26-.57-.43a7.8,7.8,0,0,0-.68-.61,11.49,11.49,0,0,1-4.87,3.44L32.4,26a12.35,12.35,0,0,0,4.47-3.64,8.73,8.73,0,0,0-2.41-1.1l.11-.23a10.42,10.42,0,0,1,2.66.8A10.27,10.27,0,0,0,38.58,19c0-.07,0-.08-.12-.08-.42,0-2.33.34-2.59.34a.85.85,0,0,1-.47-.15,9.67,9.67,0,0,1-3.12,3Zm6.73-5.56c.79.29,1.49.92,1.49,1.46,0,.28-.16.4-.31.4s-.22-.05-.31-.31a2.81,2.81,0,0,0-1-1.35ZM40.2,16c.87.32,1.52,1,1.52,1.46,0,.29-.17.4-.31.4s-.24-.06-.34-.32a2.82,2.82,0,0,0-1-1.37Z"/><path class="cls-2" d="M41.34,23c4.13-2.1,7.45-5,7.45-5.56,0-.21-.31-.43-.61-.42,0-.11.24-.28.52-.28.58,0,1.4.5,1.4,1,0,.12-.12.14-.29.2a.92.92,0,0,0-.35.24,31,31,0,0,1-2.69,2.18.8.8,0,0,1,.42.53c0,.13-.07.21-.08.37s0,1,0,1.42c0,.65,0,1.42,0,1.77s0,.71,0,1c0,.5-.17.72-.44.72s-.46-.52-.56-1.14a1.68,1.68,0,0,0,.21-.82c0-.43.06-1.36.06-2.07a3.26,3.26,0,0,0-.16-1.37,24.51,24.51,0,0,1-4.78,2.53Z"/><path class="cls-2" d="M53.09,17.38a.68.68,0,0,1,.68-.54c.68,0,1.3.21,1.3.48a1.08,1.08,0,0,1-.09.29.88.88,0,0,0,0,.24c0,.2.2,1.27.3,1.74,1.1-.25,2.72-.63,3.35-.81a.7.7,0,0,0,.36-.24c.1-.12.17-.2.3-.2a2,2,0,0,1,1.06.95c0,.09-.15.15-.35.19a.78.78,0,0,0-.43.35,12.31,12.31,0,0,1-2.11,2.26l-.21-.16a10.22,10.22,0,0,0,1.64-2.72s0-.06-.07-.06-2.57.65-3.44.91c.34,1.51.77,3.27,1.1,4.36.1.37.29.57.29.74,0,.62-.09.93-.47.93s-.43-.41-.64-1.56c-.09-.55-.49-2.56-.91-4.31a9.32,9.32,0,0,0-2.26.8c-.17.14-.23.22-.42.22A1.43,1.43,0,0,1,51,20.14a.51.51,0,0,1,.25-.43v0a.69.69,0,0,0,.68.54,16.64,16.64,0,0,0,2.73-.53c-.19-.78-.38-1.51-.51-1.88s-.3-.52-.62-.52a1.73,1.73,0,0,0-.38.05Z"/><path class="cls-2" d="M62.4,19a.69.69,0,0,1,.57-.34c.45,0,1.24.35,1.24.67,0,.13-.09.17-.15.27a.71.71,0,0,0-.09.3,8.38,8.38,0,0,1-2.93,6l-.23-.2a9.47,9.47,0,0,0,2.38-6c0-.46-.35-.62-.78-.58Zm8.34,1.27A7.63,7.63,0,0,1,67,24.89a1.24,1.24,0,0,0-.41.34c-.14.16-.2.32-.32.32a1.12,1.12,0,0,1-.72-.83.78.78,0,0,1,.17-.37,2.14,2.14,0,0,0,.07-.61c0-.6,0-1.79,0-2.94,0-1,0-1.94,0-2.45s0-.79-.26-.89a1,1,0,0,0-.57-.09h0a.56.56,0,0,1,.59-.4c.45,0,1.24.31,1.24.7a.58.58,0,0,1-.15.34.86.86,0,0,0-.14.53c-.07,1.06-.08,2.87-.08,4.49v1.15c0,.06,0,.08.07.08a7.8,7.8,0,0,0,4-4.12Z"/></g><g id="icons"><g class="cls-5"><rect class="cls-2" x="2" y="33" width="68" height="44"/></g></g></svg>